<svg width="70" height="70" viewBox="0 0 70 70" fill="none" xmlns="http://www.w3.org/2000/svg">
<path d="M35 68.5C53.5015 68.5 68.5 53.5015 68.5 35C68.5 16.4985 53.5015 1.5 35 1.5C16.4985 1.5 1.5 16.4985 1.5 35C1.5 53.5015 16.4985 68.5 35 68.5Z" fill="#F7E600" stroke="#1F1F1F" stroke-width="3"/>
<path d="M54.0324 28.6855C53.4604 26.9141 53.7042 24.255 52.2173 22.2018C50.7187 20.1324 48.1122 19.5443 46.6404 18.4679C45.1842 17.4028 43.8293 15.0851 41.3797 14.2857C38.9992 13.5089 36.5649 14.563 34.6774 14.563C32.7902 14.563 30.3561 13.5086 27.9751 14.2856C25.5259 15.0848 24.17 17.403 22.7146 18.4676C21.2444 19.5428 18.636 20.1325 17.1377 22.2015C15.652 24.253 15.8934 26.9182 15.3224 28.6855C14.7789 30.3674 13 32.386 13 35.0002C13 37.616 14.7769 39.6268 15.3224 41.3148C15.8944 43.0863 15.6506 45.7454 17.1375 47.7986C18.636 49.868 21.2424 50.4561 22.7144 51.5326C24.1704 52.5975 25.5255 54.9154 27.9751 55.7146C30.354 56.491 32.7921 55.4373 34.6774 55.4373C36.56 55.4373 39.0038 56.4899 41.3797 55.7147C43.829 54.9155 45.1841 52.5978 46.6402 51.5328C48.1104 50.4576 50.7188 49.8678 52.2171 47.7988C53.7029 45.7473 53.4613 43.0823 54.0324 41.3149C54.5759 39.6329 56.3548 37.6143 56.3548 35.0002C56.3548 32.3846 54.5784 30.3743 54.0324 28.6855ZM50.8095 40.2734C50.1427 42.3374 50.3174 44.6473 49.474 45.812C48.6193 46.9921 46.3737 47.5312 44.641 48.7986C42.9272 50.0519 41.726 52.0387 40.329 52.4945C39.0074 52.9259 36.8535 52.0501 34.6775 52.0501C32.4855 52.0501 30.3539 52.9277 29.0259 52.4945C27.629 52.0387 26.4296 50.0533 24.7139 48.7985C22.9914 47.5388 20.7331 46.9886 19.8808 45.8118C19.0401 44.651 19.2082 42.3251 18.5454 40.2735C17.8958 38.2633 16.3871 36.5228 16.3871 35.0002C16.3871 33.4761 17.8944 31.7415 18.5453 29.727C19.2121 27.6631 19.0374 25.353 19.8808 24.1884C20.735 23.009 22.9823 22.4682 24.7139 21.2018C26.4331 19.9444 27.6267 17.9623 29.0257 17.5058C30.3462 17.075 32.5071 17.9503 34.6773 17.9503C36.8733 17.9503 38.9996 17.072 40.3289 17.5058C41.7256 17.9616 42.9261 19.9478 44.641 21.2018C46.3632 22.4616 48.6217 23.0117 49.474 24.1885C50.3149 25.3495 50.1458 27.673 50.8094 29.7268V29.7269C51.459 31.7371 52.9677 33.4776 52.9677 35.0002C52.9677 36.5243 51.4604 38.2588 50.8095 40.2734ZM42.4798 29.5643C43.1412 30.2257 43.1412 31.298 42.4798 31.9593L34.0031 40.436C33.3417 41.0975 32.2693 41.0974 31.608 40.436L26.8751 35.7031C26.2136 35.0417 26.2136 33.9694 26.875 33.3081C27.5364 32.6467 28.6088 32.6467 29.27 33.3081L32.8055 36.8435L40.0846 29.5644C40.7461 28.903 41.8184 28.903 42.4798 29.5643Z" fill="#1F1F1F"/>
</svg>
