<svg width="70" height="70" viewBox="0 0 70 70" fill="none" xmlns="http://www.w3.org/2000/svg">
<path d="M35 68.5C53.5015 68.5 68.5 53.5015 68.5 35C68.5 16.4985 53.5015 1.5 35 1.5C16.4985 1.5 1.5 16.4985 1.5 35C1.5 53.5015 16.4985 68.5 35 68.5Z" fill="#F7E600" stroke="#1F1F1F" stroke-width="3"/>
<g clip-path="url(#clip0_111_2258)">
<path d="M52.7436 35.7714V16.6458C52.7436 15.9634 52.1904 15.4103 51.5081 15.4103H18.4066C17.7243 15.4103 17.1711 15.9634 17.1711 16.6458V37.296C16.5751 37.3829 15.9924 37.6142 15.477 37.9969C13.8521 39.1491 13.4677 41.7277 14.8288 43.3179L20.3937 50.0643C23.8385 54.0959 27.4977 54.5898 32.9377 54.5898C37.606 54.5898 39.693 54.6104 43.7615 53.6834L47.7232 52.7358C48.3655 53.6329 49.3853 54.214 50.5318 54.214H52.4834C54.4224 54.214 56 52.5521 56 50.5093V39.4649C56.0001 37.5144 54.5615 35.9122 52.7436 35.7714ZM47.1903 38.3129L45.5441 37.4768C42.8375 36.1105 39.7081 36.06 36.9587 37.3382C36.2086 37.6333 34.5726 38.6231 33.724 38.59H28.0117C26.117 38.59 24.5754 40.1315 24.5754 42.0263V42.9273C24.5648 42.9161 24.5536 42.9055 24.5432 42.8941L20.464 38.4664C20.2172 38.1985 19.9398 37.9742 19.6422 37.7944V25.5367H29.7528V30.0657C29.7528 30.748 30.306 31.3012 30.9883 31.3012H38.7844C39.4667 31.3012 40.0199 30.748 40.0199 30.0657V25.5367H50.2727V35.7713C48.8291 35.8828 47.6254 36.9155 47.1903 38.3129ZM32.2238 25.5367H37.5488V28.8302H32.2238V25.5367ZM50.2726 23.0657H40.0199V17.8813H50.2727V23.0657H50.2726ZM37.5489 17.8813V23.0658H32.2238V17.8813H37.5489ZM29.7528 17.8813V23.0658H19.6421V17.8813H29.7528ZM43.1881 51.2798C39.4297 52.1406 37.1662 52.1057 32.982 52.1057C27.8753 52.1057 25.4079 52.0232 22.3 48.4918L16.7351 41.7455C15.7672 40.485 17.5204 38.9971 18.6467 40.1405L22.7259 44.5683C23.804 45.7059 25.1606 46.3319 26.8327 46.3688H38.1423C38.8246 46.3688 39.3777 45.8156 39.3777 45.1333C39.3777 44.4509 38.8246 43.8978 38.1423 43.8978H27.0463V42.0262C27.0463 41.4939 27.4793 41.0608 28.0116 41.0608H33.7239C35.0108 41.153 36.8682 40.0785 38.0004 39.5787C40.0596 38.6213 42.4034 38.6592 44.4279 39.681L47.0153 40.9953V50.3643L43.1881 51.2798ZM53.5291 50.5092C53.5291 51.1895 53.06 51.7429 52.4834 51.7429H50.5319C49.9553 51.7429 49.4863 51.1895 49.4863 50.5092V39.4649C49.4863 38.7846 49.9554 38.2311 50.5319 38.2311H52.4834C53.06 38.2311 53.5291 38.7846 53.5291 39.4649V50.5092Z" fill="#1F1F1F"/>
</g>
<defs>
<clipPath id="clip0_111_2258">
<rect width="42" height="42" fill="white" transform="translate(14 14)"/>
</clipPath>
</defs>
</svg>
