<svg width="25" height="25" viewBox="0 0 25 25" fill="none" xmlns="http://www.w3.org/2000/svg">
<path d="M21.34 5.40772C20.8292 4.89673 20.2228 4.49137 19.5554 4.21481C18.8879 3.93825 18.1725 3.7959 17.45 3.7959C16.7275 3.7959 16.0121 3.93825 15.3446 4.21481C14.6772 4.49137 14.0708 4.89673 13.56 5.40772L12.5 6.46772L11.44 5.40772C10.4083 4.37603 9.00903 3.79643 7.55 3.79643C6.09096 3.79643 4.69169 4.37603 3.66 5.40772C2.6283 6.43942 2.04871 7.83869 2.04871 9.29772C2.04871 10.7568 2.6283 12.156 3.66 13.1877L4.72 14.2477L12.5 22.0277L20.28 14.2477L21.34 13.1877C21.851 12.677 22.2563 12.0705 22.5329 11.4031C22.8095 10.7356 22.9518 10.0202 22.9518 9.29772C22.9518 8.57524 22.8095 7.85983 22.5329 7.19237C22.2563 6.52491 21.851 5.91848 21.34 5.40772Z" fill="#D72638" stroke="#25282B" stroke-width="2" stroke-linecap="round" stroke-linejoin="round"/>
</svg>
