<svg width="25" height="25" viewBox="0 0 25 25" fill="none" xmlns="http://www.w3.org/2000/svg">
<g clip-path="url(#clip0_426_292)">
<path d="M21.0066 5.40772C20.4959 4.89673 19.8894 4.49137 19.222 4.21481C18.5545 3.93825 17.8391 3.7959 17.1166 3.7959C16.3941 3.7959 15.6787 3.93825 15.0113 4.21481C14.3438 4.49137 13.7374 4.89673 13.2266 5.40772L12.1666 6.46772L11.1066 5.40772C10.0749 4.37603 8.67566 3.79643 7.21662 3.79643C5.75759 3.79643 4.35831 4.37603 3.32662 5.40772C2.29493 6.43942 1.71533 7.83869 1.71533 9.29772C1.71533 10.7568 2.29493 12.156 3.32662 13.1877L4.38662 14.2477L12.1666 22.0277L19.9466 14.2477L21.0066 13.1877C21.5176 12.677 21.923 12.0705 22.1995 11.4031C22.4761 10.7356 22.6184 10.0202 22.6184 9.29772C22.6184 8.57524 22.4761 7.85983 22.1995 7.19237C21.923 6.52491 21.5176 5.91848 21.0066 5.40772V5.40772Z" stroke="#25282B" stroke-width="2" stroke-linecap="round" stroke-linejoin="round"/>
</g>
<defs>
<clipPath id="clip0_426_292">
<rect width="24" height="24" fill="white" transform="translate(0.166626 0.797607)"/>
</clipPath>
</defs>
</svg>
