<svg width="369" height="116" viewBox="0 0 369 116" fill="none" xmlns="http://www.w3.org/2000/svg">
<g filter="url(#filter0_d_104_2959)">
<rect x="4" width="361" height="108" rx="10" fill="#F3F4F6" shape-rendering="crispEdges"/>
<path d="M89.598 44.2686C94.0995 47.4979 99.6139 49.3979 105.57 49.3979V37.8961C104.443 37.8963 103.318 37.7784 102.216 37.5439V46.5975C96.2602 46.5975 90.7465 44.6974 86.2438 41.4684V64.9402C86.2438 76.682 76.7591 86.1999 65.0597 86.1999C60.6944 86.1999 56.6371 84.8755 53.2666 82.604C57.1134 86.5514 62.4781 89.0001 68.4132 89.0001C80.1133 89.0001 89.5985 79.4822 89.5985 67.7399V44.2686H89.598ZM93.7358 32.6647C91.4353 30.1425 89.9249 26.883 89.598 23.2794V21.8H86.4195C87.2195 26.3801 89.9486 30.2931 93.7358 32.6647ZM60.6664 73.5938C59.3811 71.9025 58.6866 69.8336 58.6897 67.7063C58.6897 62.336 63.0279 57.9818 68.3802 57.9818C69.3777 57.9815 70.3692 58.1348 71.3197 58.4375V46.6787C70.2089 46.5259 69.0877 46.461 67.967 46.4848V55.6373C67.0157 55.3346 66.0237 55.1809 65.026 55.1818C59.6738 55.1818 55.3357 59.5356 55.3357 64.9066C55.3357 68.7042 57.5041 71.9921 60.6664 73.5938Z" fill="#FF004F"/>
<path d="M86.244 41.4682C90.7466 44.6972 96.2604 46.5972 102.216 46.5972V37.5437C98.8915 36.8331 95.9486 35.0897 93.7359 32.6647C89.9484 30.2929 87.2197 26.3799 86.4196 21.8H78.0704V67.7394C78.0515 73.095 73.7206 77.4315 68.3798 77.4315C65.2326 77.4315 62.4366 75.926 60.6659 73.5938C57.5038 71.9921 55.3354 68.704 55.3354 64.9068C55.3354 59.5363 59.6734 55.1821 65.0257 55.1821C66.0511 55.1821 67.0395 55.3423 67.9666 55.6375V46.485C56.4728 46.7233 47.229 56.1483 47.229 67.7397C47.229 73.526 49.5309 78.7716 53.267 82.6043C56.6374 84.8755 60.6948 86.2001 65.0601 86.2001C76.7597 86.2001 86.2442 76.6818 86.2442 64.9402V41.4682H86.244Z" fill="black"/>
<path d="M102.216 37.5436V35.0956C99.218 35.1001 96.2792 34.2576 93.7359 32.6644C95.9873 35.1381 98.952 36.8438 102.216 37.5436ZM86.4195 21.8C86.3432 21.3622 86.2846 20.9216 86.2439 20.4794V19H74.7159V64.9399C74.6975 70.2947 70.3669 74.6312 65.0256 74.6312C63.4575 74.6312 61.977 74.2577 60.6658 73.5939C62.4366 75.9259 65.2326 77.4312 68.3798 77.4312C73.7201 77.4312 78.0517 73.0952 78.0703 67.7396V21.8H86.4195ZM67.9671 46.4849V43.8789C67.0038 43.7467 66.0327 43.6804 65.0603 43.6809C53.3598 43.6807 43.875 53.1991 43.875 64.9399C43.875 72.3007 47.6027 78.7878 53.2672 82.6037C49.5311 78.7712 47.2292 73.5254 47.2292 67.7393C47.2292 56.1482 56.4728 46.7232 67.9671 46.4849Z" fill="#00F2EA"/>
<path d="M130.536 45.152V55.232C130.536 56.24 130.784 57.016 131.28 57.56C131.776 58.104 132.504 58.376 133.464 58.376C134.424 58.376 135.16 58.104 135.672 57.56C136.184 57.016 136.44 56.24 136.44 55.232V45.152H140.544V55.208C140.544 56.712 140.224 57.984 139.584 59.024C138.944 60.064 138.08 60.848 136.992 61.376C135.92 61.904 134.72 62.168 133.392 62.168C132.064 62.168 130.872 61.912 129.816 61.4C128.776 60.872 127.952 60.088 127.344 59.048C126.736 57.992 126.432 56.712 126.432 55.208V45.152H130.536ZM147.53 50.504C147.93 49.88 148.482 49.376 149.186 48.992C149.89 48.608 150.714 48.416 151.658 48.416C152.762 48.416 153.762 48.696 154.658 49.256C155.554 49.816 156.258 50.616 156.77 51.656C157.298 52.696 157.562 53.904 157.562 55.28C157.562 56.656 157.298 57.872 156.77 58.928C156.258 59.968 155.554 60.776 154.658 61.352C153.762 61.912 152.762 62.192 151.658 62.192C150.73 62.192 149.906 62 149.186 61.616C148.482 61.232 147.93 60.736 147.53 60.128V68.384H143.426V48.608H147.53V50.504ZM153.386 55.28C153.386 54.256 153.098 53.456 152.522 52.88C151.962 52.288 151.266 51.992 150.434 51.992C149.618 51.992 148.922 52.288 148.346 52.88C147.786 53.472 147.506 54.28 147.506 55.304C147.506 56.328 147.786 57.136 148.346 57.728C148.922 58.32 149.618 58.616 150.434 58.616C151.25 58.616 151.946 58.32 152.522 57.728C153.098 57.12 153.386 56.304 153.386 55.28ZM163.819 44.24V62H159.715V44.24H163.819ZM172.889 62.192C171.577 62.192 170.393 61.912 169.337 61.352C168.297 60.792 167.473 59.992 166.865 58.952C166.273 57.912 165.977 56.696 165.977 55.304C165.977 53.928 166.281 52.72 166.889 51.68C167.497 50.624 168.329 49.816 169.385 49.256C170.441 48.696 171.625 48.416 172.937 48.416C174.249 48.416 175.433 48.696 176.489 49.256C177.545 49.816 178.377 50.624 178.985 51.68C179.593 52.72 179.897 53.928 179.897 55.304C179.897 56.68 179.585 57.896 178.961 58.952C178.353 59.992 177.513 60.792 176.441 61.352C175.385 61.912 174.201 62.192 172.889 62.192ZM172.889 58.64C173.673 58.64 174.337 58.352 174.881 57.776C175.441 57.2 175.721 56.376 175.721 55.304C175.721 54.232 175.449 53.408 174.905 52.832C174.377 52.256 173.721 51.968 172.937 51.968C172.137 51.968 171.473 52.256 170.945 52.832C170.417 53.392 170.153 54.216 170.153 55.304C170.153 56.376 170.409 57.2 170.921 57.776C171.449 58.352 172.105 58.64 172.889 58.64ZM181.258 55.28C181.258 53.904 181.514 52.696 182.026 51.656C182.554 50.616 183.266 49.816 184.162 49.256C185.058 48.696 186.058 48.416 187.162 48.416C188.106 48.416 188.93 48.608 189.634 48.992C190.354 49.376 190.906 49.88 191.29 50.504V48.608H195.394V62H191.29V60.104C190.89 60.728 190.33 61.232 189.61 61.616C188.906 62 188.082 62.192 187.138 62.192C186.05 62.192 185.058 61.912 184.162 61.352C183.266 60.776 182.554 59.968 182.026 58.928C181.514 57.872 181.258 56.656 181.258 55.28ZM191.29 55.304C191.29 54.28 191.002 53.472 190.426 52.88C189.866 52.288 189.178 51.992 188.362 51.992C187.546 51.992 186.85 52.288 186.274 52.88C185.714 53.456 185.434 54.256 185.434 55.28C185.434 56.304 185.714 57.12 186.274 57.728C186.85 58.32 187.546 58.616 188.362 58.616C189.178 58.616 189.866 58.32 190.426 57.728C191.002 57.136 191.29 56.328 191.29 55.304ZM197.547 55.28C197.547 53.904 197.803 52.696 198.315 51.656C198.843 50.616 199.555 49.816 200.451 49.256C201.347 48.696 202.347 48.416 203.451 48.416C204.331 48.416 205.131 48.6 205.851 48.968C206.587 49.336 207.163 49.832 207.579 50.456V44.24H211.683V62H207.579V60.08C207.195 60.72 206.643 61.232 205.923 61.616C205.219 62 204.395 62.192 203.451 62.192C202.347 62.192 201.347 61.912 200.451 61.352C199.555 60.776 198.843 59.968 198.315 58.928C197.803 57.872 197.547 56.656 197.547 55.28ZM207.579 55.304C207.579 54.28 207.291 53.472 206.715 52.88C206.155 52.288 205.467 51.992 204.651 51.992C203.835 51.992 203.139 52.288 202.563 52.88C202.003 53.456 201.723 54.256 201.723 55.28C201.723 56.304 202.003 57.12 202.563 57.728C203.139 58.32 203.835 58.616 204.651 58.616C205.467 58.616 206.155 58.32 206.715 57.728C207.291 57.136 207.579 56.328 207.579 55.304ZM218.922 55.28C218.922 53.904 219.178 52.696 219.69 51.656C220.218 50.616 220.93 49.816 221.826 49.256C222.722 48.696 223.722 48.416 224.826 48.416C225.77 48.416 226.594 48.608 227.298 48.992C228.018 49.376 228.57 49.88 228.954 50.504V48.608H233.058V62H228.954V60.104C228.554 60.728 227.994 61.232 227.274 61.616C226.57 62 225.746 62.192 224.802 62.192C223.714 62.192 222.722 61.912 221.826 61.352C220.93 60.776 220.218 59.968 219.69 58.928C219.178 57.872 218.922 56.656 218.922 55.28ZM228.954 55.304C228.954 54.28 228.666 53.472 228.09 52.88C227.53 52.288 226.842 51.992 226.026 51.992C225.21 51.992 224.514 52.288 223.938 52.88C223.378 53.456 223.098 54.256 223.098 55.28C223.098 56.304 223.378 57.12 223.938 57.728C224.514 58.32 225.21 58.616 226.026 58.616C226.842 58.616 227.53 58.32 228.09 57.728C228.666 57.136 228.954 56.328 228.954 55.304ZM253.233 45.152V48.44H248.769V62H244.665V48.44H240.201V45.152H253.233ZM257.357 47.216C256.637 47.216 256.045 47.008 255.581 46.592C255.133 46.16 254.909 45.632 254.909 45.008C254.909 44.368 255.133 43.84 255.581 43.424C256.045 42.992 256.637 42.776 257.357 42.776C258.061 42.776 258.637 42.992 259.085 43.424C259.549 43.84 259.781 44.368 259.781 45.008C259.781 45.632 259.549 46.16 259.085 46.592C258.637 47.008 258.061 47.216 257.357 47.216ZM259.397 48.608V62H255.293V48.608H259.397ZM270.555 62L266.475 56.384V62H262.371V44.24H266.475V54.056L270.531 48.608H275.595L270.027 55.328L275.643 62H270.555ZM284.671 58.52V62H282.583C281.095 62 279.935 61.64 279.103 60.92C278.271 60.184 277.855 58.992 277.855 57.344V52.016H276.223V48.608H277.855V45.344H281.959V48.608H284.647V52.016H281.959V57.392C281.959 57.792 282.055 58.08 282.247 58.256C282.439 58.432 282.759 58.52 283.207 58.52H284.671ZM293.053 62.192C291.741 62.192 290.557 61.912 289.501 61.352C288.461 60.792 287.637 59.992 287.029 58.952C286.437 57.912 286.141 56.696 286.141 55.304C286.141 53.928 286.445 52.72 287.053 51.68C287.661 50.624 288.493 49.816 289.549 49.256C290.605 48.696 291.789 48.416 293.101 48.416C294.413 48.416 295.597 48.696 296.653 49.256C297.709 49.816 298.541 50.624 299.149 51.68C299.757 52.72 300.061 53.928 300.061 55.304C300.061 56.68 299.749 57.896 299.125 58.952C298.517 59.992 297.677 60.792 296.605 61.352C295.549 61.912 294.365 62.192 293.053 62.192ZM293.053 58.64C293.837 58.64 294.501 58.352 295.045 57.776C295.605 57.2 295.885 56.376 295.885 55.304C295.885 54.232 295.613 53.408 295.069 52.832C294.541 52.256 293.885 51.968 293.101 51.968C292.301 51.968 291.637 52.256 291.109 52.832C290.581 53.392 290.317 54.216 290.317 55.304C290.317 56.376 290.573 57.2 291.085 57.776C291.613 58.352 292.269 58.64 293.053 58.64ZM310.422 62L306.342 56.384V62H302.238V44.24H306.342V54.056L310.398 48.608H315.462L309.894 55.328L315.51 62H310.422ZM322.474 44.552L321.994 56.048H318.514L318.034 44.552H322.474ZM320.314 62.192C319.594 62.192 319.002 61.984 318.538 61.568C318.09 61.136 317.866 60.608 317.866 59.984C317.866 59.344 318.09 58.808 318.538 58.376C319.002 57.944 319.594 57.728 320.314 57.728C321.018 57.728 321.594 57.944 322.042 58.376C322.506 58.808 322.738 59.344 322.738 59.984C322.738 60.608 322.506 61.136 322.042 61.568C321.594 61.984 321.018 62.192 320.314 62.192Z" fill="#1F1F1F"/>
</g>
<defs>
<filter id="filter0_d_104_2959" x="0" y="0" width="369" height="116" filterUnits="userSpaceOnUse" color-interpolation-filters="sRGB">
<feFlood flood-opacity="0" result="BackgroundImageFix"/>
<feColorMatrix in="SourceAlpha" type="matrix" values="0 0 0 0 0 0 0 0 0 0 0 0 0 0 0 0 0 0 127 0" result="hardAlpha"/>
<feOffset dy="4"/>
<feGaussianBlur stdDeviation="2"/>
<feComposite in2="hardAlpha" operator="out"/>
<feColorMatrix type="matrix" values="0 0 0 0 0 0 0 0 0 0 0 0 0 0 0 0 0 0 0.25 0"/>
<feBlend mode="normal" in2="BackgroundImageFix" result="effect1_dropShadow_104_2959"/>
<feBlend mode="normal" in="SourceGraphic" in2="effect1_dropShadow_104_2959" result="shape"/>
</filter>
</defs>
</svg>
