<svg width="369" height="116" viewBox="0 0 369 116" fill="none" xmlns="http://www.w3.org/2000/svg">
<g filter="url(#filter0_d_104_2884)">
<rect x="4" width="361" height="108" rx="10" fill="#16499C" shape-rendering="crispEdges"/>
<g clip-path="url(#clip0_104_2884)">
<path d="M117 54C117 34.6702 101.33 19 82 19C62.6702 19 47 34.6702 47 54C47 70.4136 58.3008 84.1868 73.5454 87.9696V64.696H66.3284V54H73.5454V49.3912C73.5454 37.4786 78.9368 31.957 90.6324 31.957C92.85 31.957 96.6762 32.3924 98.2414 32.8264V42.5214C97.4154 42.4346 95.9804 42.3912 94.1982 42.3912C88.4596 42.3912 86.242 44.5654 86.242 50.2172V54H97.6744L95.7102 64.696H86.242V88.7438C103.573 86.6508 117.001 71.8948 117.001 54H117Z" fill="#0866FF"/>
<path d="M95.7087 64.696L97.6729 54H86.2405V50.2172C86.2405 44.5654 88.4581 42.3912 94.1967 42.3912C95.9789 42.3912 97.4139 42.4346 98.2399 42.5214V32.8264C96.6747 32.391 92.8485 31.957 90.6309 31.957C78.9353 31.957 73.5439 37.4786 73.5439 49.3912V54H66.3269V64.696H73.5439V87.9696C76.2515 88.6416 79.0837 89 81.9985 89C83.4335 89 84.8489 88.9118 86.2391 88.7438V64.696H95.7073H95.7087Z" fill="white"/>
</g>
<path d="M131.929 53.552C131.929 51.888 132.289 50.408 133.009 49.112C133.729 47.8 134.729 46.784 136.009 46.064C137.305 45.328 138.769 44.96 140.401 44.96C142.401 44.96 144.113 45.488 145.537 46.544C146.961 47.6 147.913 49.04 148.393 50.864H143.881C143.545 50.16 143.065 49.624 142.441 49.256C141.833 48.888 141.137 48.704 140.353 48.704C139.089 48.704 138.065 49.144 137.281 50.024C136.497 50.904 136.105 52.08 136.105 53.552C136.105 55.024 136.497 56.2 137.281 57.08C138.065 57.96 139.089 58.4 140.353 58.4C141.137 58.4 141.833 58.216 142.441 57.848C143.065 57.48 143.545 56.944 143.881 56.24H148.393C147.913 58.064 146.961 59.504 145.537 60.56C144.113 61.6 142.401 62.12 140.401 62.12C138.769 62.12 137.305 61.76 136.009 61.04C134.729 60.304 133.729 59.288 133.009 57.992C132.289 56.696 131.929 55.216 131.929 53.552ZM155.01 50.84C155.49 50.104 156.09 49.528 156.81 49.112C157.53 48.68 158.33 48.464 159.21 48.464V52.808H158.082C157.058 52.808 156.29 53.032 155.778 53.48C155.266 53.912 155.01 54.68 155.01 55.784V62H150.906V48.608H155.01V50.84ZM173.796 55.088C173.796 55.472 173.772 55.872 173.724 56.288H164.436C164.5 57.12 164.764 57.76 165.228 58.208C165.708 58.64 166.292 58.856 166.98 58.856C168.004 58.856 168.716 58.424 169.116 57.56H173.484C173.26 58.44 172.852 59.232 172.26 59.936C171.684 60.64 170.956 61.192 170.076 61.592C169.196 61.992 168.212 62.192 167.124 62.192C165.812 62.192 164.644 61.912 163.62 61.352C162.596 60.792 161.796 59.992 161.22 58.952C160.644 57.912 160.356 56.696 160.356 55.304C160.356 53.912 160.636 52.696 161.196 51.656C161.772 50.616 162.572 49.816 163.596 49.256C164.62 48.696 165.796 48.416 167.124 48.416C168.42 48.416 169.572 48.688 170.58 49.232C171.588 49.776 172.372 50.552 172.932 51.56C173.508 52.568 173.796 53.744 173.796 55.088ZM169.596 54.008C169.596 53.304 169.356 52.744 168.876 52.328C168.396 51.912 167.796 51.704 167.076 51.704C166.388 51.704 165.804 51.904 165.324 52.304C164.86 52.704 164.572 53.272 164.46 54.008H169.596ZM175.145 55.28C175.145 53.904 175.401 52.696 175.913 51.656C176.441 50.616 177.153 49.816 178.049 49.256C178.945 48.696 179.945 48.416 181.049 48.416C181.993 48.416 182.817 48.608 183.521 48.992C184.241 49.376 184.793 49.88 185.177 50.504V48.608H189.281V62H185.177V60.104C184.777 60.728 184.217 61.232 183.497 61.616C182.793 62 181.969 62.192 181.025 62.192C179.937 62.192 178.945 61.912 178.049 61.352C177.153 60.776 176.441 59.968 175.913 58.928C175.401 57.872 175.145 56.656 175.145 55.28ZM185.177 55.304C185.177 54.28 184.889 53.472 184.313 52.88C183.753 52.288 183.065 51.992 182.249 51.992C181.433 51.992 180.737 52.288 180.161 52.88C179.601 53.456 179.321 54.256 179.321 55.28C179.321 56.304 179.601 57.12 180.161 57.728C180.737 58.32 181.433 58.616 182.249 58.616C183.065 58.616 183.753 58.32 184.313 57.728C184.889 57.136 185.177 56.328 185.177 55.304ZM199.714 58.52V62H197.626C196.138 62 194.978 61.64 194.146 60.92C193.314 60.184 192.898 58.992 192.898 57.344V52.016H191.266V48.608H192.898V45.344H197.002V48.608H199.69V52.016H197.002V57.392C197.002 57.792 197.098 58.08 197.29 58.256C197.482 58.432 197.802 58.52 198.25 58.52H199.714ZM214.624 55.088C214.624 55.472 214.6 55.872 214.552 56.288H205.264C205.328 57.12 205.592 57.76 206.056 58.208C206.536 58.64 207.12 58.856 207.808 58.856C208.832 58.856 209.544 58.424 209.944 57.56H214.312C214.088 58.44 213.68 59.232 213.088 59.936C212.512 60.64 211.784 61.192 210.904 61.592C210.024 61.992 209.04 62.192 207.952 62.192C206.64 62.192 205.472 61.912 204.448 61.352C203.424 60.792 202.624 59.992 202.048 58.952C201.472 57.912 201.184 56.696 201.184 55.304C201.184 53.912 201.464 52.696 202.024 51.656C202.6 50.616 203.4 49.816 204.424 49.256C205.448 48.696 206.624 48.416 207.952 48.416C209.248 48.416 210.4 48.688 211.408 49.232C212.416 49.776 213.2 50.552 213.76 51.56C214.336 52.568 214.624 53.744 214.624 55.088ZM210.424 54.008C210.424 53.304 210.184 52.744 209.704 52.328C209.224 51.912 208.624 51.704 207.904 51.704C207.216 51.704 206.632 51.904 206.152 52.304C205.688 52.704 205.4 53.272 205.288 54.008H210.424ZM221.059 55.28C221.059 53.904 221.315 52.696 221.827 51.656C222.355 50.616 223.067 49.816 223.963 49.256C224.859 48.696 225.859 48.416 226.963 48.416C227.907 48.416 228.731 48.608 229.435 48.992C230.155 49.376 230.707 49.88 231.091 50.504V48.608H235.195V62H231.091V60.104C230.691 60.728 230.131 61.232 229.411 61.616C228.707 62 227.883 62.192 226.939 62.192C225.851 62.192 224.859 61.912 223.963 61.352C223.067 60.776 222.355 59.968 221.827 58.928C221.315 57.872 221.059 56.656 221.059 55.28ZM231.091 55.304C231.091 54.28 230.803 53.472 230.227 52.88C229.667 52.288 228.979 51.992 228.163 51.992C227.347 51.992 226.651 52.288 226.075 52.88C225.515 53.456 225.235 54.256 225.235 55.28C225.235 56.304 225.515 57.12 226.075 57.728C226.651 58.32 227.347 58.616 228.163 58.616C228.979 58.616 229.667 58.32 230.227 57.728C230.803 57.136 231.091 56.328 231.091 55.304ZM247.354 50.504C247.754 49.88 248.306 49.376 249.01 48.992C249.714 48.608 250.538 48.416 251.482 48.416C252.586 48.416 253.586 48.696 254.482 49.256C255.378 49.816 256.082 50.616 256.594 51.656C257.122 52.696 257.386 53.904 257.386 55.28C257.386 56.656 257.122 57.872 256.594 58.928C256.082 59.968 255.378 60.776 254.482 61.352C253.586 61.912 252.586 62.192 251.482 62.192C250.554 62.192 249.73 62 249.01 61.616C248.306 61.232 247.754 60.736 247.354 60.128V68.384H243.25V48.608H247.354V50.504ZM253.21 55.28C253.21 54.256 252.922 53.456 252.346 52.88C251.786 52.288 251.09 51.992 250.258 51.992C249.442 51.992 248.746 52.288 248.17 52.88C247.61 53.472 247.33 54.28 247.33 55.304C247.33 56.328 247.61 57.136 248.17 57.728C248.746 58.32 249.442 58.616 250.258 58.616C251.074 58.616 251.77 58.32 252.346 57.728C252.922 57.12 253.21 56.304 253.21 55.28ZM265.635 62.192C264.323 62.192 263.139 61.912 262.083 61.352C261.043 60.792 260.219 59.992 259.611 58.952C259.019 57.912 258.723 56.696 258.723 55.304C258.723 53.928 259.027 52.72 259.635 51.68C260.243 50.624 261.075 49.816 262.131 49.256C263.187 48.696 264.371 48.416 265.683 48.416C266.995 48.416 268.179 48.696 269.235 49.256C270.291 49.816 271.123 50.624 271.731 51.68C272.339 52.72 272.643 53.928 272.643 55.304C272.643 56.68 272.331 57.896 271.707 58.952C271.099 59.992 270.259 60.792 269.187 61.352C268.131 61.912 266.947 62.192 265.635 62.192ZM265.635 58.64C266.419 58.64 267.083 58.352 267.627 57.776C268.187 57.2 268.467 56.376 268.467 55.304C268.467 54.232 268.195 53.408 267.651 52.832C267.123 52.256 266.467 51.968 265.683 51.968C264.883 51.968 264.219 52.256 263.691 52.832C263.163 53.392 262.899 54.216 262.899 55.304C262.899 56.376 263.155 57.2 263.667 57.776C264.195 58.352 264.851 58.64 265.635 58.64ZM280.268 62.192C279.1 62.192 278.06 61.992 277.148 61.592C276.236 61.192 275.516 60.648 274.988 59.96C274.46 59.256 274.164 58.472 274.1 57.608H278.156C278.204 58.072 278.42 58.448 278.804 58.736C279.188 59.024 279.66 59.168 280.22 59.168C280.732 59.168 281.124 59.072 281.396 58.88C281.684 58.672 281.828 58.408 281.828 58.088C281.828 57.704 281.628 57.424 281.228 57.248C280.828 57.056 280.18 56.848 279.284 56.624C278.324 56.4 277.524 56.168 276.884 55.928C276.244 55.672 275.692 55.28 275.228 54.752C274.764 54.208 274.532 53.48 274.532 52.568C274.532 51.8 274.74 51.104 275.156 50.48C275.588 49.84 276.212 49.336 277.028 48.968C277.86 48.6 278.844 48.416 279.98 48.416C281.66 48.416 282.98 48.832 283.94 49.664C284.916 50.496 285.476 51.6 285.62 52.976H281.828C281.764 52.512 281.556 52.144 281.204 51.872C280.868 51.6 280.42 51.464 279.86 51.464C279.38 51.464 279.012 51.56 278.756 51.752C278.5 51.928 278.372 52.176 278.372 52.496C278.372 52.88 278.572 53.168 278.972 53.36C279.388 53.552 280.028 53.744 280.892 53.936C281.884 54.192 282.692 54.448 283.316 54.704C283.94 54.944 284.484 55.344 284.948 55.904C285.428 56.448 285.676 57.184 285.692 58.112C285.692 58.896 285.468 59.6 285.02 60.224C284.588 60.832 283.956 61.312 283.124 61.664C282.308 62.016 281.356 62.192 280.268 62.192ZM295.667 58.52V62H293.579C292.091 62 290.931 61.64 290.099 60.92C289.267 60.184 288.851 58.992 288.851 57.344V52.016H287.219V48.608H288.851V45.344H292.955V48.608H295.643V52.016H292.955V57.392C292.955 57.792 293.051 58.08 293.243 58.256C293.435 58.432 293.755 58.52 294.203 58.52H295.667ZM303.353 44.552L302.873 56.048H299.393L298.913 44.552H303.353ZM301.193 62.192C300.473 62.192 299.881 61.984 299.417 61.568C298.969 61.136 298.745 60.608 298.745 59.984C298.745 59.344 298.969 58.808 299.417 58.376C299.881 57.944 300.473 57.728 301.193 57.728C301.897 57.728 302.473 57.944 302.921 58.376C303.385 58.808 303.617 59.344 303.617 59.984C303.617 60.608 303.385 61.136 302.921 61.568C302.473 61.984 301.897 62.192 301.193 62.192Z" fill="#EEEEEE"/>
</g>
<defs>
<filter id="filter0_d_104_2884" x="0" y="0" width="369" height="116" filterUnits="userSpaceOnUse" color-interpolation-filters="sRGB">
<feFlood flood-opacity="0" result="BackgroundImageFix"/>
<feColorMatrix in="SourceAlpha" type="matrix" values="0 0 0 0 0 0 0 0 0 0 0 0 0 0 0 0 0 0 127 0" result="hardAlpha"/>
<feOffset dy="4"/>
<feGaussianBlur stdDeviation="2"/>
<feComposite in2="hardAlpha" operator="out"/>
<feColorMatrix type="matrix" values="0 0 0 0 0 0 0 0 0 0 0 0 0 0 0 0 0 0 0.25 0"/>
<feBlend mode="normal" in2="BackgroundImageFix" result="effect1_dropShadow_104_2884"/>
<feBlend mode="normal" in="SourceGraphic" in2="effect1_dropShadow_104_2884" result="shape"/>
</filter>
<clipPath id="clip0_104_2884">
<rect width="70" height="70" fill="white" transform="translate(47 19)"/>
</clipPath>
</defs>
</svg>
