<svg width="370" height="116" viewBox="0 0 370 116" fill="none" xmlns="http://www.w3.org/2000/svg">
<g filter="url(#filter0_d_104_2945)">
<rect x="4.5" width="361" height="108" rx="10" fill="url(#paint0_linear_104_2945)" shape-rendering="crispEdges"/>
<g clip-path="url(#clip0_104_2945)">
<path d="M82.5 25.3027C91.8516 25.3027 92.959 25.3437 96.6367 25.5078C100.055 25.6582 101.9 26.2324 103.131 26.7109C104.758 27.3398 105.934 28.1055 107.15 29.3223C108.381 30.5527 109.133 31.7148 109.762 33.3418C110.24 34.5723 110.814 36.4316 110.965 39.8359C111.129 43.5273 111.17 44.6348 111.17 53.9727C111.17 63.3242 111.129 64.4316 110.965 68.1094C110.814 71.5274 110.24 73.3731 109.762 74.6035C109.133 76.2305 108.367 77.4063 107.15 78.6231C105.92 79.8535 104.758 80.6055 103.131 81.2344C101.9 81.7129 100.041 82.2871 96.6367 82.4375C92.9453 82.6016 91.8379 82.6426 82.5 82.6426C73.1484 82.6426 72.041 82.6016 68.3633 82.4375C64.9453 82.2871 63.0996 81.7129 61.8691 81.2344C60.2422 80.6055 59.0664 79.8398 57.8496 78.6231C56.6191 77.3926 55.8672 76.2305 55.2383 74.6035C54.7598 73.3731 54.1855 71.5137 54.0352 68.1094C53.8711 64.418 53.8301 63.3106 53.8301 53.9727C53.8301 44.6211 53.8711 43.5137 54.0352 39.8359C54.1855 36.418 54.7598 34.5723 55.2383 33.3418C55.8672 31.7148 56.6328 30.5391 57.8496 29.3223C59.0801 28.0918 60.2422 27.3398 61.8691 26.7109C63.0996 26.2324 64.959 25.6582 68.3633 25.5078C72.041 25.3437 73.1484 25.3027 82.5 25.3027ZM82.5 19C72.998 19 71.8086 19.041 68.0762 19.2051C64.3574 19.3691 61.8008 19.9707 59.5859 20.832C57.2754 21.7344 55.3203 22.9238 53.3789 24.8789C51.4238 26.8203 50.2344 28.7754 49.332 31.0723C48.4707 33.3008 47.8691 35.8438 47.7051 39.5625C47.541 43.3086 47.5 44.498 47.5 54C47.5 63.502 47.541 64.6914 47.7051 68.4238C47.8691 72.1426 48.4707 74.6992 49.332 76.9141C50.2344 79.2246 51.4238 81.1797 53.3789 83.1211C55.3203 85.0625 57.2754 86.2656 59.5723 87.1543C61.8008 88.0156 64.3438 88.6172 68.0625 88.7812C71.7949 88.9453 72.9844 88.9863 82.4863 88.9863C91.9883 88.9863 93.1777 88.9453 96.9102 88.7812C100.629 88.6172 103.186 88.0156 105.4 87.1543C107.697 86.2656 109.652 85.0625 111.594 83.1211C113.535 81.1797 114.738 79.2246 115.627 76.9277C116.488 74.6992 117.09 72.1563 117.254 68.4375C117.418 64.7051 117.459 63.5156 117.459 54.0137C117.459 44.5117 117.418 43.3223 117.254 39.5898C117.09 35.8711 116.488 33.3145 115.627 31.0996C114.766 28.7754 113.576 26.8203 111.621 24.8789C109.68 22.9375 107.725 21.7344 105.428 20.8457C103.199 19.9844 100.656 19.3828 96.9375 19.2188C93.1914 19.041 92.002 19 82.5 19Z" fill="white"/>
<path d="M82.5 36.0215C72.5742 36.0215 64.5215 44.0742 64.5215 54C64.5215 63.9258 72.5742 71.9785 82.5 71.9785C92.4258 71.9785 100.479 63.9258 100.479 54C100.479 44.0742 92.4258 36.0215 82.5 36.0215ZM82.5 65.6621C76.0605 65.6621 70.8379 60.4395 70.8379 54C70.8379 47.5605 76.0605 42.3379 82.5 42.3379C88.9395 42.3379 94.1621 47.5605 94.1621 54C94.1621 60.4395 88.9395 65.6621 82.5 65.6621Z" fill="white"/>
<path d="M105.387 35.3106C105.387 37.6348 103.5 39.5078 101.189 39.5078C98.8652 39.5078 96.9922 37.6211 96.9922 35.3106C96.9922 32.9863 98.8789 31.1133 101.189 31.1133C103.5 31.1133 105.387 33 105.387 35.3106Z" fill="white"/>
</g>
<path d="M147.336 50.576C147.336 51.552 147.112 52.448 146.664 53.264C146.216 54.064 145.528 54.712 144.6 55.208C143.672 55.704 142.52 55.952 141.144 55.952H138.6V62H134.496V45.152H141.144C142.488 45.152 143.624 45.384 144.552 45.848C145.48 46.312 146.176 46.952 146.64 47.768C147.104 48.584 147.336 49.52 147.336 50.576ZM140.832 52.688C141.616 52.688 142.2 52.504 142.584 52.136C142.968 51.768 143.16 51.248 143.16 50.576C143.16 49.904 142.968 49.384 142.584 49.016C142.2 48.648 141.616 48.464 140.832 48.464H138.6V52.688H140.832ZM155.568 62.192C154.256 62.192 153.072 61.912 152.016 61.352C150.976 60.792 150.152 59.992 149.544 58.952C148.952 57.912 148.656 56.696 148.656 55.304C148.656 53.928 148.96 52.72 149.568 51.68C150.176 50.624 151.008 49.816 152.064 49.256C153.12 48.696 154.304 48.416 155.616 48.416C156.928 48.416 158.112 48.696 159.168 49.256C160.224 49.816 161.056 50.624 161.664 51.68C162.272 52.72 162.576 53.928 162.576 55.304C162.576 56.68 162.264 57.896 161.64 58.952C161.032 59.992 160.192 60.792 159.12 61.352C158.064 61.912 156.88 62.192 155.568 62.192ZM155.568 58.64C156.352 58.64 157.016 58.352 157.56 57.776C158.12 57.2 158.4 56.376 158.4 55.304C158.4 54.232 158.128 53.408 157.584 52.832C157.056 52.256 156.4 51.968 155.616 51.968C154.816 51.968 154.152 52.256 153.624 52.832C153.096 53.392 152.832 54.216 152.832 55.304C152.832 56.376 153.088 57.2 153.6 57.776C154.128 58.352 154.784 58.64 155.568 58.64ZM170.202 62.192C169.034 62.192 167.994 61.992 167.082 61.592C166.17 61.192 165.45 60.648 164.922 59.96C164.394 59.256 164.098 58.472 164.034 57.608H168.09C168.138 58.072 168.354 58.448 168.738 58.736C169.122 59.024 169.594 59.168 170.154 59.168C170.666 59.168 171.058 59.072 171.33 58.88C171.618 58.672 171.762 58.408 171.762 58.088C171.762 57.704 171.562 57.424 171.162 57.248C170.762 57.056 170.114 56.848 169.218 56.624C168.258 56.4 167.458 56.168 166.818 55.928C166.178 55.672 165.626 55.28 165.162 54.752C164.698 54.208 164.466 53.48 164.466 52.568C164.466 51.8 164.674 51.104 165.09 50.48C165.522 49.84 166.146 49.336 166.962 48.968C167.794 48.6 168.778 48.416 169.914 48.416C171.594 48.416 172.914 48.832 173.874 49.664C174.85 50.496 175.41 51.6 175.554 52.976H171.762C171.698 52.512 171.49 52.144 171.138 51.872C170.802 51.6 170.354 51.464 169.794 51.464C169.314 51.464 168.946 51.56 168.69 51.752C168.434 51.928 168.306 52.176 168.306 52.496C168.306 52.88 168.506 53.168 168.906 53.36C169.322 53.552 169.962 53.744 170.826 53.936C171.818 54.192 172.626 54.448 173.25 54.704C173.874 54.944 174.418 55.344 174.882 55.904C175.362 56.448 175.61 57.184 175.626 58.112C175.626 58.896 175.402 59.6 174.954 60.224C174.522 60.832 173.89 61.312 173.058 61.664C172.242 62.016 171.29 62.192 170.202 62.192ZM185.6 58.52V62H183.512C182.024 62 180.864 61.64 180.032 60.92C179.2 60.184 178.784 58.992 178.784 57.344V52.016H177.152V48.608H178.784V45.344H182.888V48.608H185.576V52.016H182.888V57.392C182.888 57.792 182.984 58.08 183.176 58.256C183.368 58.432 183.688 58.52 184.136 58.52H185.6ZM192.156 55.28C192.156 53.904 192.412 52.696 192.924 51.656C193.452 50.616 194.164 49.816 195.06 49.256C195.956 48.696 196.956 48.416 198.06 48.416C199.004 48.416 199.828 48.608 200.532 48.992C201.252 49.376 201.804 49.88 202.188 50.504V48.608H206.292V62H202.188V60.104C201.788 60.728 201.228 61.232 200.508 61.616C199.804 62 198.98 62.192 198.036 62.192C196.948 62.192 195.956 61.912 195.06 61.352C194.164 60.776 193.452 59.968 192.924 58.928C192.412 57.872 192.156 56.656 192.156 55.28ZM202.188 55.304C202.188 54.28 201.9 53.472 201.324 52.88C200.764 52.288 200.076 51.992 199.26 51.992C198.444 51.992 197.748 52.288 197.172 52.88C196.612 53.456 196.332 54.256 196.332 55.28C196.332 56.304 196.612 57.12 197.172 57.728C197.748 58.32 198.444 58.616 199.26 58.616C200.076 58.616 200.764 58.32 201.324 57.728C201.9 57.136 202.188 56.328 202.188 55.304ZM218.451 50.84C218.931 50.104 219.531 49.528 220.251 49.112C220.971 48.68 221.771 48.464 222.651 48.464V52.808H221.523C220.499 52.808 219.731 53.032 219.219 53.48C218.707 53.912 218.451 54.68 218.451 55.784V62H214.347V48.608H218.451V50.84ZM237.237 55.088C237.237 55.472 237.213 55.872 237.165 56.288H227.877C227.941 57.12 228.205 57.76 228.669 58.208C229.149 58.64 229.733 58.856 230.421 58.856C231.445 58.856 232.157 58.424 232.557 57.56H236.925C236.701 58.44 236.293 59.232 235.701 59.936C235.125 60.64 234.397 61.192 233.517 61.592C232.637 61.992 231.653 62.192 230.565 62.192C229.253 62.192 228.085 61.912 227.061 61.352C226.037 60.792 225.237 59.992 224.661 58.952C224.085 57.912 223.797 56.696 223.797 55.304C223.797 53.912 224.077 52.696 224.637 51.656C225.213 50.616 226.013 49.816 227.037 49.256C228.061 48.696 229.237 48.416 230.565 48.416C231.861 48.416 233.013 48.688 234.021 49.232C235.029 49.776 235.813 50.552 236.373 51.56C236.949 52.568 237.237 53.744 237.237 55.088ZM233.037 54.008C233.037 53.304 232.797 52.744 232.317 52.328C231.837 51.912 231.237 51.704 230.517 51.704C229.829 51.704 229.245 51.904 228.765 52.304C228.301 52.704 228.013 53.272 227.901 54.008H233.037ZM245.426 58.16L248.33 48.608H252.698L247.946 62H242.882L238.13 48.608H242.522L245.426 58.16ZM256.49 47.216C255.77 47.216 255.178 47.008 254.714 46.592C254.266 46.16 254.042 45.632 254.042 45.008C254.042 44.368 254.266 43.84 254.714 43.424C255.178 42.992 255.77 42.776 256.49 42.776C257.194 42.776 257.77 42.992 258.218 43.424C258.682 43.84 258.914 44.368 258.914 45.008C258.914 45.632 258.682 46.16 258.218 46.592C257.77 47.008 257.194 47.216 256.49 47.216ZM258.53 48.608V62H254.426V48.608H258.53ZM274.128 55.088C274.128 55.472 274.104 55.872 274.056 56.288H264.768C264.832 57.12 265.096 57.76 265.56 58.208C266.04 58.64 266.624 58.856 267.312 58.856C268.336 58.856 269.048 58.424 269.448 57.56H273.816C273.592 58.44 273.184 59.232 272.592 59.936C272.016 60.64 271.288 61.192 270.408 61.592C269.528 61.992 268.544 62.192 267.456 62.192C266.144 62.192 264.976 61.912 263.952 61.352C262.928 60.792 262.128 59.992 261.552 58.952C260.976 57.912 260.688 56.696 260.688 55.304C260.688 53.912 260.968 52.696 261.528 51.656C262.104 50.616 262.904 49.816 263.928 49.256C264.952 48.696 266.128 48.416 267.456 48.416C268.752 48.416 269.904 48.688 270.912 49.232C271.92 49.776 272.704 50.552 273.264 51.56C273.84 52.568 274.128 53.744 274.128 55.088ZM269.928 54.008C269.928 53.304 269.688 52.744 269.208 52.328C268.728 51.912 268.128 51.704 267.408 51.704C266.72 51.704 266.136 51.904 265.656 52.304C265.192 52.704 264.904 53.272 264.792 54.008H269.928ZM295.517 48.608L291.893 62H287.357L285.245 53.312L283.061 62H278.549L274.901 48.608H279.005L280.901 58.184L283.157 48.608H287.501L289.781 58.136L291.653 48.608H295.517ZM302.482 44.552L302.002 56.048H298.522L298.042 44.552H302.482ZM300.322 62.192C299.602 62.192 299.01 61.984 298.546 61.568C298.098 61.136 297.874 60.608 297.874 59.984C297.874 59.344 298.098 58.808 298.546 58.376C299.01 57.944 299.602 57.728 300.322 57.728C301.026 57.728 301.602 57.944 302.05 58.376C302.514 58.808 302.746 59.344 302.746 59.984C302.746 60.608 302.514 61.136 302.05 61.568C301.602 61.984 301.026 62.192 300.322 62.192Z" fill="#EEEEEE"/>
</g>
<defs>
<filter id="filter0_d_104_2945" x="0.5" y="0" width="369" height="116" filterUnits="userSpaceOnUse" color-interpolation-filters="sRGB">
<feFlood flood-opacity="0" result="BackgroundImageFix"/>
<feColorMatrix in="SourceAlpha" type="matrix" values="0 0 0 0 0 0 0 0 0 0 0 0 0 0 0 0 0 0 127 0" result="hardAlpha"/>
<feOffset dy="4"/>
<feGaussianBlur stdDeviation="2"/>
<feComposite in2="hardAlpha" operator="out"/>
<feColorMatrix type="matrix" values="0 0 0 0 0 0 0 0 0 0 0 0 0 0 0 0 0 0 0.25 0"/>
<feBlend mode="normal" in2="BackgroundImageFix" result="effect1_dropShadow_104_2945"/>
<feBlend mode="normal" in="SourceGraphic" in2="effect1_dropShadow_104_2945" result="shape"/>
</filter>
<linearGradient id="paint0_linear_104_2945" x1="4.5" y1="16.017" x2="280.917" y2="213.616" gradientUnits="userSpaceOnUse">
<stop stop-color="#F9CE34"/>
<stop offset="0.5201" stop-color="#EE2A7B"/>
<stop offset="1" stop-color="#6228D7"/>
</linearGradient>
<clipPath id="clip0_104_2945">
<rect width="70" height="70" fill="white" transform="translate(47.5 19)"/>
</clipPath>
</defs>
</svg>
