<svg width="200" height="25" viewBox="0 0 200 25" fill="none" xmlns="http://www.w3.org/2000/svg">
<path d="M0.306818 24L4.17045 0.727272H13.7841C15.5265 0.727272 16.9811 1.04167 18.1477 1.67045C19.3144 2.29167 20.1439 3.18561 20.6364 4.35227C21.1288 5.51136 21.2424 6.88636 20.9773 8.47727C20.7197 10.0833 20.1439 11.4508 19.25 12.5795C18.3636 13.7008 17.2197 14.5568 15.8182 15.1477C14.4242 15.7386 12.8409 16.0341 11.0682 16.0341H4.98864L5.73864 11.6023H10.7727C11.6136 11.6023 12.3409 11.4924 12.9545 11.2727C13.5682 11.0455 14.0568 10.7045 14.4205 10.25C14.7917 9.78788 15.0379 9.19697 15.1591 8.47727C15.2727 7.75757 15.2197 7.16288 15 6.69318C14.7879 6.21591 14.4129 5.85985 13.875 5.625C13.3447 5.38258 12.6629 5.26136 11.8295 5.26136H9.05682L5.93182 24H0.306818ZM15.1705 13.3636L19.2045 24H13.0682L9.15909 13.3636H15.1705ZM21.7443 24L25.608 0.727272H41.8352L41.0625 5.29545H30.4602L29.6875 10.0682H39.4602L38.6875 14.6477H28.9148L28.142 19.4318H38.7443L37.9716 24H21.7443ZM41.4943 24L45.358 0.727272H61.2443L60.4716 5.29545H50.2102L49.4375 10.0682H58.6875L57.9148 14.6477H48.6648L47.1193 24H41.4943ZM69.7017 0.727272L65.8381 24H60.2131L64.0767 0.727272H69.7017ZM93.0398 0.727272L89.1761 24H84.4034L77.392 10.5682H77.233L74.9943 24H69.3693L73.233 0.727272H78.0739L85.0284 14.1364H85.2216L87.4261 0.727272H93.0398ZM92.7131 24L96.5767 0.727272H112.804L112.031 5.29545H101.429L100.656 10.0682H110.429L109.656 14.6477H99.8835L99.1108 19.4318H109.713L108.94 24H92.7131ZM113.009 24L115.423 9.45455H120.338C121.474 9.45455 122.374 9.64631 123.037 10.0298C123.705 10.4134 124.157 10.9413 124.393 11.6136C124.635 12.286 124.685 13.053 124.543 13.9148C124.401 14.767 124.098 15.5246 123.634 16.1875C123.174 16.8504 122.549 17.3712 121.759 17.75C120.973 18.1288 120.016 18.3182 118.889 18.3182H114.912L115.196 16.7273H119.116C119.893 16.7273 120.537 16.6136 121.048 16.3864C121.56 16.1591 121.957 15.8348 122.241 15.4134C122.526 14.992 122.715 14.4924 122.81 13.9148C122.904 13.3277 122.878 12.8187 122.732 12.3878C122.589 11.9522 122.298 11.616 121.858 11.3793C121.422 11.1378 120.812 11.017 120.026 11.017H116.929L114.77 24H113.009ZM120.935 17.4659L123.435 24H121.389L118.946 17.4659H120.935ZM125.801 24L128.216 9.45455H136.995L136.739 11.017H129.722L128.898 15.9318H135.461L135.205 17.4943H128.642L127.819 22.4375H134.949L134.694 24H125.801ZM147.499 13.2045C147.499 12.4233 147.241 11.8314 146.725 11.429C146.209 11.0218 145.51 10.8182 144.63 10.8182C143.986 10.8182 143.406 10.9223 142.89 11.1307C142.373 11.339 141.952 11.6255 141.625 11.9901C141.299 12.3546 141.097 12.7689 141.022 13.233C140.96 13.6212 141 13.955 141.142 14.2344C141.284 14.509 141.486 14.7386 141.746 14.9233C142.011 15.1032 142.295 15.2524 142.598 15.3707C142.901 15.4844 143.181 15.5767 143.436 15.6477L144.857 16.0455C145.212 16.1449 145.607 16.2822 146.043 16.4574C146.479 16.6326 146.886 16.8717 147.265 17.1747C147.643 17.473 147.932 17.8565 148.131 18.3253C148.335 18.794 148.38 19.3693 148.266 20.0511C148.133 20.8371 147.809 21.5473 147.293 22.1818C146.782 22.8163 146.105 23.3205 145.262 23.6946C144.424 24.0687 143.446 24.2557 142.328 24.2557C141.287 24.2557 140.411 24.0876 139.701 23.7514C138.995 23.4152 138.474 22.9465 138.138 22.3452C137.807 21.7438 137.679 21.0455 137.755 20.25H139.573C139.525 20.7992 139.634 21.2538 139.9 21.6136C140.165 21.9687 140.534 22.2339 141.007 22.4091C141.481 22.5795 142.007 22.6648 142.584 22.6648C143.257 22.6648 143.877 22.5559 144.445 22.3381C145.018 22.1155 145.491 21.8078 145.865 21.4148C146.244 21.017 146.476 20.553 146.561 20.0227C146.647 19.5398 146.58 19.1468 146.363 18.8438C146.145 18.5407 145.83 18.2945 145.418 18.1051C145.006 17.9157 144.554 17.75 144.061 17.608L142.357 17.0966C141.277 16.7699 140.456 16.3035 139.892 15.6974C139.334 15.0914 139.132 14.2983 139.289 13.3182C139.431 12.5038 139.774 11.7936 140.319 11.1875C140.863 10.5767 141.538 10.1032 142.343 9.76705C143.148 9.42614 144.014 9.25568 144.942 9.25568C145.88 9.25568 146.682 9.42614 147.35 9.76705C148.017 10.1032 148.515 10.5696 148.841 11.1662C149.168 11.758 149.289 12.4375 149.203 13.2045H147.499ZM162.469 9.45455H164.23L162.639 19.0852C162.473 20.0795 162.092 20.9673 161.496 21.7486C160.899 22.5251 160.139 23.1383 159.216 23.5881C158.293 24.0331 157.26 24.2557 156.119 24.2557C154.978 24.2557 154.022 24.0331 153.25 23.5881C152.478 23.1383 151.924 22.5251 151.588 21.7486C151.252 20.9673 151.167 20.0795 151.332 19.0852L152.923 9.45455H154.685L153.108 18.9432C152.994 19.6534 153.049 20.2855 153.271 20.8395C153.494 21.3887 153.868 21.822 154.393 22.1392C154.924 22.4517 155.594 22.608 156.403 22.608C157.213 22.608 157.935 22.4517 158.57 22.1392C159.204 21.822 159.72 21.3887 160.118 20.8395C160.52 20.2855 160.778 19.6534 160.892 18.9432L162.469 9.45455ZM165.333 24L167.748 9.45455H169.509L167.35 22.4375H174.111L173.855 24H165.333ZM176.013 11.017L176.268 9.45455H187.178L186.922 11.017H182.348L180.189 24H178.428L180.587 11.017H176.013ZM197.225 13.2045C197.225 12.4233 196.967 11.8314 196.451 11.429C195.935 11.0218 195.237 10.8182 194.356 10.8182C193.712 10.8182 193.132 10.9223 192.616 11.1307C192.1 11.339 191.679 11.6255 191.352 11.9901C191.025 12.3546 190.824 12.7689 190.748 13.233C190.687 13.6212 190.727 13.955 190.869 14.2344C191.011 14.509 191.212 14.7386 191.473 14.9233C191.738 15.1032 192.022 15.2524 192.325 15.3707C192.628 15.4844 192.907 15.5767 193.163 15.6477L194.583 16.0455C194.939 16.1449 195.334 16.2822 195.77 16.4574C196.205 16.6326 196.612 16.8717 196.991 17.1747C197.37 17.473 197.659 17.8565 197.858 18.3253C198.061 18.794 198.106 19.3693 197.993 20.0511C197.86 20.8371 197.536 21.5473 197.02 22.1818C196.508 22.8163 195.831 23.3205 194.988 23.6946C194.15 24.0687 193.172 24.2557 192.055 24.2557C191.013 24.2557 190.137 24.0876 189.427 23.7514C188.722 23.4152 188.201 22.9465 187.865 22.3452C187.533 21.7438 187.405 21.0455 187.481 20.25H189.299C189.252 20.7992 189.361 21.2538 189.626 21.6136C189.891 21.9687 190.261 22.2339 190.734 22.4091C191.208 22.5795 191.733 22.6648 192.311 22.6648C192.983 22.6648 193.603 22.5559 194.172 22.3381C194.744 22.1155 195.218 21.8078 195.592 21.4148C195.971 21.017 196.203 20.553 196.288 20.0227C196.373 19.5398 196.307 19.1468 196.089 18.8438C195.871 18.5407 195.556 18.2945 195.145 18.1051C194.733 17.9157 194.28 17.75 193.788 17.608L192.083 17.0966C191.004 16.7699 190.182 16.3035 189.619 15.6974C189.06 15.0914 188.859 14.2983 189.015 13.3182C189.157 12.5038 189.501 11.7936 190.045 11.1875C190.59 10.5767 191.264 10.1032 192.069 9.76705C192.874 9.42614 193.741 9.25568 194.669 9.25568C195.606 9.25568 196.409 9.42614 197.076 9.76705C197.744 10.1032 198.241 10.5696 198.568 11.1662C198.895 11.758 199.015 12.4375 198.93 13.2045H197.225Z" fill="black"/>
</svg>
