<svg width="299" height="37" viewBox="0 0 299 37" fill="none" xmlns="http://www.w3.org/2000/svg">
<path d="M34.7411 19.0909C34.1048 22.8523 32.8548 26.0284 30.9911 28.6193C29.1389 31.1989 26.8832 33.1534 24.2241 34.483C21.5764 35.8125 18.7298 36.4773 15.6843 36.4773C12.4684 36.4773 9.6843 35.7614 7.33203 34.3295C4.97976 32.8977 3.26953 30.8125 2.20135 28.0739C1.14453 25.3352 0.939986 22.0114 1.58771 18.1023C2.20135 14.3409 3.4343 11.1591 5.28658 8.55682C7.15021 5.95454 9.41726 3.98295 12.0877 2.64204C14.7695 1.28977 17.6445 0.613635 20.7127 0.613635C23.9059 0.613635 26.6729 1.33523 29.0139 2.77841C31.3661 4.22159 33.0707 6.31818 34.1275 9.06818C35.1843 11.8182 35.3889 15.1591 34.7411 19.0909ZM26.3036 18.1023C26.6559 15.9091 26.6559 14.0625 26.3036 12.5625C25.9627 11.0625 25.2923 9.93182 24.2923 9.17045C23.2923 8.39773 21.9911 8.01136 20.3889 8.01136C18.6161 8.01136 17.0139 8.44886 15.582 9.32386C14.1616 10.1875 12.9741 11.4489 12.0195 13.108C11.065 14.7557 10.4002 16.75 10.0252 19.0909C9.63885 21.3068 9.62749 23.1534 9.99112 24.6307C10.3661 26.108 11.065 27.2216 12.0877 27.9716C13.1104 28.7102 14.4116 29.0795 15.9911 29.0795C17.7525 29.0795 19.3377 28.6534 20.7468 27.8011C22.1559 26.9489 23.332 25.7045 24.2752 24.0682C25.2298 22.4318 25.9059 20.4432 26.3036 18.1023ZM63.7695 1.09091H72.19L68.457 23.608C68.0252 26.2102 67.0309 28.4773 65.4741 30.4091C63.9286 32.3295 61.957 33.8182 59.5593 34.875C57.1616 35.9205 54.4911 36.4432 51.5479 36.4432C48.5934 36.4432 46.0991 35.9205 44.065 34.875C42.0309 33.8182 40.5593 32.3295 39.6502 30.4091C38.7411 28.4773 38.4968 26.2102 38.9173 23.608L42.6502 1.09091H51.0877L47.457 22.875C47.2638 24.0795 47.3548 25.1534 47.7298 26.0966C48.1161 27.0284 48.7411 27.767 49.6048 28.3125C50.4684 28.8466 51.5252 29.1136 52.7752 29.1136C54.0366 29.1136 55.19 28.8466 56.2354 28.3125C57.2809 27.767 58.1445 27.0284 58.8264 26.0966C59.5082 25.1534 59.9457 24.0795 60.1389 22.875L63.7695 1.09091ZM71.6829 36L77.4783 1.09091H91.8988C94.5124 1.09091 96.6942 1.5625 98.4442 2.50568C100.194 3.4375 101.439 4.77841 102.177 6.52841C102.916 8.26704 103.086 10.3295 102.689 12.7159C102.302 15.125 101.439 17.1761 100.098 18.8693C98.7681 20.5511 97.0522 21.8352 94.9499 22.7216C92.859 23.608 90.484 24.0511 87.8249 24.0511H78.7056L79.8306 17.4034H87.3817C88.6431 17.4034 89.734 17.2386 90.6545 16.9091C91.5749 16.5682 92.3079 16.0568 92.8533 15.375C93.4102 14.6818 93.7795 13.7955 93.9613 12.7159C94.1317 11.6364 94.0522 10.7443 93.7227 10.0398C93.4045 9.32386 92.842 8.78977 92.0352 8.4375C91.2397 8.07386 90.217 7.89205 88.967 7.89205H84.8079L80.1204 36H71.6829ZM93.9783 20.0455L100.029 36H90.8249L84.9613 20.0455H93.9783ZM128.947 18H125.828C125.794 17.0881 125.606 16.2869 125.265 15.5966C124.924 14.9062 124.464 14.3267 123.885 13.858C123.314 13.3807 122.657 13.0227 121.916 12.7841C121.174 12.5455 120.382 12.4261 119.538 12.4261C117.919 12.4261 116.385 12.8395 114.936 13.6662C113.487 14.4844 112.247 15.6903 111.216 17.2841C110.184 18.8693 109.481 20.8125 109.106 23.1136C108.731 25.3466 108.787 27.2259 109.272 28.7514C109.758 30.277 110.564 31.4318 111.689 32.2159C112.814 33 114.152 33.392 115.703 33.392C116.598 33.392 117.475 33.2727 118.336 33.0341C119.206 32.7955 120.015 32.4418 120.765 31.973C121.524 31.4957 122.197 30.9119 122.785 30.2216C123.382 29.5227 123.85 28.7216 124.191 27.8182H127.362C126.893 29.1562 126.258 30.3537 125.457 31.4105C124.664 32.4673 123.748 33.3665 122.708 34.108C121.669 34.8409 120.548 35.3991 119.346 35.7827C118.145 36.1662 116.896 36.358 115.6 36.358C113.333 36.358 111.403 35.804 109.809 34.696C108.224 33.5795 107.091 32.0028 106.409 29.9659C105.735 27.9205 105.629 25.5 106.089 22.7045C106.549 19.9773 107.431 17.625 108.735 15.6477C110.039 13.6619 111.637 12.1364 113.529 11.071C115.422 9.99716 117.475 9.46023 119.691 9.46023C121.021 9.46023 122.244 9.65199 123.36 10.0355C124.477 10.419 125.449 10.9815 126.275 11.723C127.102 12.456 127.745 13.3509 128.206 14.4077C128.674 15.456 128.922 16.6534 128.947 18ZM155.343 23.1136C154.883 25.8409 154.001 28.1974 152.697 30.1832C151.393 32.1605 149.799 33.6861 147.915 34.7599C146.032 35.8253 143.991 36.358 141.792 36.358C139.525 36.358 137.594 35.804 136.001 34.696C134.415 33.5795 133.282 32.0028 132.6 29.9659C131.927 27.9205 131.82 25.5 132.281 22.7045C132.741 19.9773 133.623 17.625 134.927 15.6477C136.231 13.6619 137.829 12.1364 139.721 11.071C141.613 9.99716 143.667 9.46023 145.883 9.46023C148.133 9.46023 150.046 10.0185 151.623 11.1349C153.208 12.2429 154.337 13.8196 155.011 15.8651C155.692 17.902 155.803 20.3182 155.343 23.1136ZM152.326 22.7045C152.701 20.4716 152.646 18.5923 152.16 17.0668C151.674 15.5412 150.869 14.3864 149.744 13.6023C148.619 12.8182 147.281 12.4261 145.729 12.4261C144.11 12.4261 142.576 12.8395 141.127 13.6662C139.678 14.4844 138.438 15.6903 137.407 17.2841C136.376 18.8693 135.673 20.8125 135.298 23.1136C134.923 25.3466 134.978 27.2259 135.464 28.7514C135.95 30.277 136.755 31.4318 137.88 32.2159C139.005 33 140.343 33.392 141.894 33.392C143.513 33.392 145.048 32.983 146.496 32.1648C147.945 31.3381 149.185 30.1321 150.217 28.5469C151.248 26.9531 151.951 25.0057 152.326 22.7045ZM183.634 9.81818L179.288 36H176.219L165.379 15.4432H165.123L161.697 36H158.526L162.873 9.81818H165.941L176.833 30.4261H177.089L180.515 9.81818H183.634ZM188.086 12.6307L188.547 9.81818H208.183L207.723 12.6307H199.49L195.603 36H192.433L196.319 12.6307H188.086ZM206.745 36H203.421L217.381 9.81818H220.654L225.921 36H222.597L218.455 13.9602H218.25L206.745 36ZM209.659 25.7727H223.057L222.597 28.5852H209.199L209.659 25.7727ZM252.803 18H249.683C249.649 17.0881 249.462 16.2869 249.121 15.5966C248.78 14.9062 248.32 14.3267 247.74 13.858C247.169 13.3807 246.513 13.0227 245.771 12.7841C245.03 12.5455 244.237 12.4261 243.393 12.4261C241.774 12.4261 240.24 12.8395 238.791 13.6662C237.342 14.4844 236.102 15.6903 235.071 17.2841C234.04 18.8693 233.337 20.8125 232.962 23.1136C232.587 25.3466 232.642 27.2259 233.128 28.7514C233.614 30.277 234.419 31.4318 235.544 32.2159C236.669 33 238.007 33.392 239.558 33.392C240.453 33.392 241.331 33.2727 242.192 33.0341C243.061 32.7955 243.871 32.4418 244.621 31.973C245.379 31.4957 246.053 30.9119 246.641 30.2216C247.237 29.5227 247.706 28.7216 248.047 27.8182H251.217C250.749 29.1562 250.114 30.3537 249.312 31.4105C248.52 32.4673 247.604 33.3665 246.564 34.108C245.524 34.8409 244.403 35.3991 243.202 35.7827C242 36.1662 240.751 36.358 239.456 36.358C237.189 36.358 235.259 35.804 233.665 34.696C232.08 33.5795 230.946 32.0028 230.264 29.9659C229.591 27.9205 229.484 25.5 229.945 22.7045C230.405 19.9773 231.287 17.625 232.591 15.6477C233.895 13.6619 235.493 12.1364 237.385 11.071C239.277 9.99716 241.331 9.46023 243.547 9.46023C244.876 9.46023 246.099 9.65199 247.216 10.0355C248.332 10.419 249.304 10.9815 250.131 11.723C250.957 12.456 251.601 13.3509 252.061 14.4077C252.53 15.456 252.777 16.6534 252.803 18ZM257.414 12.6307L257.875 9.81818H277.511L277.051 12.6307H268.818L264.931 36H261.761L265.647 12.6307H257.414ZM295.597 16.5682C295.597 15.1619 295.133 14.0966 294.204 13.3722C293.275 12.6392 292.018 12.2727 290.433 12.2727C289.273 12.2727 288.229 12.4602 287.3 12.8352C286.371 13.2102 285.613 13.7259 285.025 14.3821C284.437 15.0384 284.075 15.7841 283.938 16.6193C283.827 17.3182 283.9 17.919 284.156 18.4219C284.411 18.9162 284.773 19.3295 285.242 19.6619C285.719 19.9858 286.231 20.2543 286.776 20.4673C287.322 20.6719 287.825 20.8381 288.285 20.9659L290.842 21.6818C291.481 21.8608 292.192 22.108 292.977 22.4233C293.761 22.7386 294.494 23.169 295.175 23.7145C295.857 24.2514 296.377 24.9418 296.735 25.7855C297.102 26.6293 297.183 27.6648 296.978 28.892C296.739 30.3068 296.156 31.5852 295.227 32.7273C294.306 33.8693 293.087 34.777 291.57 35.4503C290.062 36.1236 288.302 36.4602 286.29 36.4602C284.415 36.4602 282.839 36.1577 281.56 35.5526C280.29 34.9474 279.353 34.1037 278.748 33.0213C278.151 31.9389 277.921 30.6818 278.058 29.25H281.33C281.245 30.2386 281.441 31.0568 281.918 31.7045C282.396 32.3437 283.06 32.821 283.913 33.1364C284.765 33.4432 285.711 33.5966 286.751 33.5966C287.961 33.5966 289.077 33.4006 290.1 33.0085C291.131 32.608 291.984 32.054 292.657 31.3466C293.339 30.6307 293.756 29.7955 293.91 28.8409C294.063 27.9716 293.944 27.2642 293.552 26.7188C293.16 26.1733 292.593 25.7301 291.852 25.3892C291.11 25.0483 290.296 24.75 289.41 24.4943L286.342 23.5739C284.398 22.9858 282.92 22.1463 281.906 21.0554C280.9 19.9645 280.538 18.5369 280.819 16.7727C281.075 15.3068 281.692 14.0284 282.673 12.9375C283.653 11.8381 284.867 10.9858 286.316 10.3807C287.765 9.76704 289.325 9.46023 290.995 9.46023C292.683 9.46023 294.127 9.76704 295.329 10.3807C296.531 10.9858 297.425 11.8253 298.013 12.8991C298.602 13.9645 298.819 15.1875 298.665 16.5682H295.597Z" fill="black"/>
</svg>
