<svg width="292" height="35" viewBox="0 0 292 35" fill="none" xmlns="http://www.w3.org/2000/svg">
<path d="M0.651234 34L6.02723 0.159998H11.5472L25.8992 24.16H24.6032L28.3952 0.159998H35.3072L29.9312 34H24.4592L10.0592 10H11.3552L7.56324 34H0.651234ZM36.793 34L42.121 0.159998H65.305L64.393 5.968H48.313L47.065 13.888H62.089L61.177 19.744H46.153L44.809 28.192H60.841L59.929 34H36.793ZM75.2635 34L68.5435 0.159998H75.7435L80.3995 26.272H78.3835L91.7755 0.159998H97.1995L101.903 26.272H100.079L113.135 0.159998H120.767L103.295 34H97.2475L92.5915 10H93.7435L81.3115 34H75.2635ZM117.353 34L132.581 8.62H135.101L142.229 34H139.349L137.441 26.908L138.593 27.52H123.257L124.733 26.944L120.557 34H117.353ZM133.409 12.076L125.525 25.54L124.733 25.036H137.909L137.081 25.576L133.481 12.076H133.409ZM146.063 34L150.095 8.62H159.131C160.955 8.62 162.479 8.896 163.703 9.448C164.927 10 165.839 10.792 166.439 11.824C167.063 12.832 167.375 14.044 167.375 15.46C167.375 17.164 166.967 18.604 166.151 19.78C165.359 20.932 164.267 21.796 162.875 22.372C161.483 22.924 159.899 23.188 158.123 23.164V22.696H158.699C159.755 22.696 160.619 22.996 161.291 23.596C161.963 24.196 162.503 25.048 162.911 26.152L165.935 34H162.911L159.923 26.116C159.659 25.42 159.347 24.868 158.987 24.46C158.627 24.052 158.183 23.752 157.655 23.56C157.127 23.368 156.467 23.272 155.675 23.272H150.707L149.015 34H146.063ZM151.103 20.932H158.303C160.223 20.932 161.723 20.476 162.803 19.564C163.883 18.652 164.423 17.344 164.423 15.64C164.423 14.128 163.979 12.988 163.091 12.22C162.203 11.452 160.775 11.068 158.807 11.068H152.651L151.103 20.932ZM170.145 34L174.177 8.62H183.213C185.037 8.62 186.561 8.896 187.785 9.448C189.009 10 189.921 10.792 190.521 11.824C191.145 12.832 191.457 14.044 191.457 15.46C191.457 17.164 191.049 18.604 190.233 19.78C189.441 20.932 188.349 21.796 186.957 22.372C185.565 22.924 183.981 23.188 182.205 23.164V22.696H182.781C183.837 22.696 184.701 22.996 185.373 23.596C186.045 24.196 186.585 25.048 186.993 26.152L190.017 34H186.993L184.005 26.116C183.741 25.42 183.429 24.868 183.069 24.46C182.709 24.052 182.265 23.752 181.737 23.56C181.209 23.368 180.549 23.272 179.757 23.272H174.789L173.097 34H170.145ZM175.185 20.932H182.385C184.305 20.932 185.805 20.476 186.885 19.564C187.965 18.652 188.505 17.344 188.505 15.64C188.505 14.128 188.061 12.988 187.173 12.22C186.285 11.452 184.857 11.068 182.889 11.068H176.733L175.185 20.932ZM194.227 34L198.259 8.62H201.211L197.179 34H194.227ZM211.357 34L204.301 8.62H207.289L213.517 31.624H212.329L225.829 8.62H229.177L214.021 34H211.357ZM223.877 34L239.105 8.62H241.625L248.753 34H245.873L243.965 26.908L245.117 27.52H229.781L231.257 26.944L227.081 34H223.877ZM239.933 12.076L232.049 25.54L231.257 25.036H244.433L243.605 25.576L240.005 12.076H239.933ZM252.586 34L256.618 8.62H259.57L255.97 31.408H268.822L268.426 34H252.586ZM280.428 34.324C279.204 34.324 278.004 34.216 276.828 34C275.676 33.784 274.584 33.448 273.552 32.992C272.52 32.536 271.584 31.948 270.744 31.228L271.968 28.96C272.856 29.656 273.756 30.208 274.668 30.616C275.58 31 276.528 31.276 277.512 31.444C278.52 31.612 279.576 31.696 280.68 31.696C281.976 31.696 283.104 31.516 284.064 31.156C285.024 30.796 285.768 30.28 286.296 29.608C286.848 28.912 287.124 28.108 287.124 27.196C287.124 26.548 286.968 25.972 286.656 25.468C286.368 24.94 285.876 24.484 285.18 24.1C284.508 23.692 283.584 23.368 282.408 23.128L278.7 22.228C277.02 21.82 275.676 21.124 274.668 20.14C273.66 19.156 273.156 17.74 273.156 15.892C273.156 14.74 273.396 13.696 273.876 12.76C274.38 11.824 275.064 11.032 275.928 10.384C276.792 9.712 277.8 9.196 278.952 8.836C280.104 8.476 281.328 8.296 282.624 8.296C284.232 8.296 285.816 8.548 287.376 9.052C288.96 9.556 290.316 10.372 291.444 11.5L290.184 13.768C289.104 12.736 287.904 12.004 286.584 11.572C285.288 11.14 283.944 10.924 282.552 10.924C281.352 10.924 280.26 11.128 279.276 11.536C278.292 11.92 277.524 12.472 276.972 13.192C276.42 13.888 276.144 14.728 276.144 15.712C276.144 16.912 276.444 17.812 277.044 18.412C277.668 18.988 278.58 19.432 279.78 19.744L283.524 20.608C285.78 21.136 287.436 21.94 288.492 23.02C289.572 24.076 290.112 25.36 290.112 26.872C290.112 28.072 289.86 29.14 289.356 30.076C288.852 31.012 288.156 31.792 287.268 32.416C286.38 33.04 285.348 33.52 284.172 33.856C283.02 34.168 281.772 34.324 280.428 34.324Z" fill="black"/>
</svg>
