<svg width="220" height="37" viewBox="0 0 220 37" fill="none" xmlns="http://www.w3.org/2000/svg">
<path d="M9.90199 36H0.833807L18.4077 1.09091H29.6406L35.6236 36H26.5554L22.7202 9.88636H22.4474L9.90199 36ZM10.9929 22.2614H29.9474L28.8565 28.6705H9.90199L10.9929 22.2614ZM39.3821 36L45.1776 1.09091H59.7344C62.348 1.09091 64.4787 1.46023 66.1264 2.19886C67.7741 2.9375 68.9332 3.97159 69.6037 5.30114C70.2855 6.63068 70.4787 8.17045 70.1832 9.92045C69.9446 11.2386 69.456 12.4205 68.7173 13.4659C67.9901 14.5 67.081 15.3636 65.9901 16.0568C64.8991 16.7386 63.6946 17.2159 62.3764 17.4886L62.3082 17.8295C63.7173 17.8864 64.9616 18.2614 66.0412 18.9545C67.1321 19.6477 67.9389 20.6193 68.4616 21.8693C68.9844 23.108 69.1037 24.5625 68.8196 26.233C68.5128 28.108 67.7571 29.7841 66.5526 31.2614C65.3594 32.7273 63.7855 33.8864 61.831 34.7386C59.8764 35.5795 57.6151 36 55.0469 36H39.3821ZM48.9787 29.1989H54.1946C56.0014 29.1989 57.3991 28.8523 58.3878 28.1591C59.3878 27.4545 59.9787 26.4886 60.1605 25.2614C60.3082 24.3636 60.2287 23.5909 59.9219 22.9432C59.6151 22.2841 59.1037 21.7784 58.3878 21.4261C57.6719 21.0625 56.7685 20.8807 55.6776 20.8807H50.3082L48.9787 29.1989ZM51.2457 15.4432H55.9332C56.8423 15.4432 57.6776 15.2898 58.4389 14.983C59.2116 14.6761 59.848 14.233 60.348 13.6534C60.8594 13.0739 61.1776 12.375 61.3026 11.5568C61.4957 10.3864 61.2287 9.46591 60.5014 8.79545C59.7741 8.125 58.7116 7.78977 57.3139 7.78977H52.5071L51.2457 15.4432ZM107.018 19.0909C106.382 22.8523 105.132 26.0284 103.268 28.6193C101.416 31.1989 99.1605 33.1534 96.5014 34.483C93.8537 35.8125 91.0071 36.4773 87.9616 36.4773C84.7457 36.4773 81.9616 35.7614 79.6094 34.3295C77.2571 32.8977 75.5469 30.8125 74.4787 28.0739C73.4219 25.3352 73.2173 22.0114 73.8651 18.1023C74.4787 14.3409 75.7116 11.1591 77.5639 8.55682C79.4276 5.95454 81.6946 3.98295 84.3651 2.64204C87.0469 1.28977 89.9219 0.613635 92.9901 0.613635C96.1832 0.613635 98.9503 1.33523 101.291 2.77841C103.643 4.22159 105.348 6.31818 106.405 9.06818C107.462 11.8182 107.666 15.1591 107.018 19.0909ZM98.581 18.1023C98.9332 15.9091 98.9332 14.0625 98.581 12.5625C98.2401 11.0625 97.5696 9.93182 96.5696 9.17045C95.5696 8.39773 94.2685 8.01136 92.6662 8.01136C90.8935 8.01136 89.2912 8.44886 87.8594 9.32386C86.4389 10.1875 85.2514 11.4489 84.2969 13.108C83.3423 14.7557 82.6776 16.75 82.3026 19.0909C81.9162 21.3068 81.9048 23.1534 82.2685 24.6307C82.6435 26.108 83.3423 27.2216 84.3651 27.9716C85.3878 28.7102 86.6889 29.0795 88.2685 29.0795C90.0298 29.0795 91.6151 28.6534 93.0241 27.8011C94.4332 26.9489 95.6094 25.7045 96.5526 24.0682C97.5071 22.4318 98.1832 20.4432 98.581 18.1023ZM136.047 1.09091H144.467L140.734 23.608C140.303 26.2102 139.308 28.4773 137.751 30.4091C136.206 32.3295 134.234 33.8182 131.837 34.875C129.439 35.9205 126.768 36.4432 123.825 36.4432C120.871 36.4432 118.376 35.9205 116.342 34.875C114.308 33.8182 112.837 32.3295 111.928 30.4091C111.018 28.4773 110.774 26.2102 111.195 23.608L114.928 1.09091H123.365L119.734 22.875C119.541 24.0795 119.632 25.1534 120.007 26.0966C120.393 27.0284 121.018 27.767 121.882 28.3125C122.746 28.8466 123.803 29.1136 125.053 29.1136C126.314 29.1136 127.467 28.8466 128.513 28.3125C129.558 27.767 130.422 27.0284 131.104 26.0966C131.786 25.1534 132.223 24.0795 132.416 22.875L136.047 1.09091ZM147.455 7.94318L148.614 1.09091H178.119L176.96 7.94318H166.375L161.739 36H153.42L158.057 7.94318H147.455ZM196.484 12.7273H199.303L196.757 28.1364C196.492 29.7273 195.882 31.1477 194.928 32.3977C193.973 33.6402 192.757 34.6212 191.28 35.3409C189.803 36.053 188.151 36.4091 186.325 36.4091C184.5 36.4091 182.969 36.053 181.734 35.3409C180.5 34.6212 179.613 33.6402 179.075 32.3977C178.537 31.1477 178.401 29.7273 178.666 28.1364L181.212 12.7273H184.03L181.507 27.9091C181.325 29.0455 181.412 30.0568 181.768 30.9432C182.125 31.822 182.723 32.5152 183.564 33.0227C184.412 33.5227 185.484 33.7727 186.78 33.7727C188.075 33.7727 189.231 33.5227 190.246 33.0227C191.261 32.5152 192.087 31.822 192.723 30.9432C193.367 30.0568 193.78 29.0455 193.962 27.9091L196.484 12.7273ZM216.658 18.7273C216.658 17.4773 216.245 16.5303 215.419 15.8864C214.593 15.2348 213.476 14.9091 212.067 14.9091C211.036 14.9091 210.108 15.0758 209.283 15.4091C208.457 15.7424 207.783 16.2008 207.26 16.7841C206.737 17.3674 206.415 18.0303 206.294 18.7727C206.196 19.3939 206.26 19.928 206.487 20.375C206.714 20.8144 207.036 21.1818 207.453 21.4773C207.877 21.7652 208.332 22.0038 208.817 22.1932C209.302 22.375 209.749 22.5227 210.158 22.6364L212.43 23.2727C212.999 23.4318 213.631 23.6515 214.328 23.9318C215.025 24.2121 215.677 24.5947 216.283 25.0795C216.889 25.5568 217.351 26.1705 217.669 26.9205C217.995 27.6705 218.067 28.5909 217.885 29.6818C217.673 30.9394 217.154 32.0758 216.328 33.0909C215.51 34.1061 214.427 34.9129 213.078 35.5114C211.737 36.1098 210.173 36.4091 208.385 36.4091C206.718 36.4091 205.317 36.1402 204.18 35.6023C203.052 35.0644 202.218 34.3144 201.68 33.3523C201.15 32.3902 200.946 31.2727 201.067 30H203.976C203.9 30.8788 204.074 31.6061 204.499 32.1818C204.923 32.75 205.514 33.1742 206.271 33.4545C207.029 33.7273 207.87 33.8636 208.794 33.8636C209.87 33.8636 210.862 33.6894 211.771 33.3409C212.688 32.9848 213.446 32.4924 214.044 31.8636C214.65 31.2273 215.021 30.4848 215.158 29.6364C215.294 28.8636 215.188 28.2348 214.839 27.75C214.491 27.2652 213.987 26.8712 213.328 26.5682C212.669 26.2652 211.946 26 211.158 25.7727L208.43 24.9545C206.703 24.4318 205.389 23.6856 204.487 22.7159C203.593 21.7462 203.271 20.4773 203.521 18.9091C203.749 17.6061 204.298 16.4697 205.169 15.5C206.04 14.5227 207.12 13.7652 208.408 13.2273C209.696 12.6818 211.082 12.4091 212.567 12.4091C214.067 12.4091 215.351 12.6818 216.419 13.2273C217.487 13.7652 218.283 14.5114 218.805 15.4659C219.328 16.4129 219.521 17.5 219.385 18.7273H216.658Z" fill="black"/>
</svg>
