<svg width="580" height="49" viewBox="0 0 580 49" fill="none" xmlns="http://www.w3.org/2000/svg">
<path d="M0.324574 47.5L8.05185 0.954544H27.4609C30.9458 0.954544 33.7867 1.44697 35.9837 2.43182C38.1806 3.41666 39.7261 4.79545 40.62 6.56818C41.5291 8.34091 41.7867 10.3939 41.3928 12.7273C41.0746 14.4848 40.4231 16.0606 39.4382 17.4545C38.4685 18.8333 37.2564 19.9848 35.8018 20.9091C34.3473 21.8182 32.7412 22.4545 30.9837 22.8182L30.8928 23.2727C32.7715 23.3485 34.4306 23.8485 35.87 24.7727C37.3246 25.697 38.4003 26.9924 39.0973 28.6591C39.7943 30.3106 39.9534 32.25 39.5746 34.4773C39.1655 36.9773 38.1579 39.2121 36.5518 41.1818C34.9609 43.1364 32.8625 44.6818 30.2564 45.8182C27.6503 46.9394 24.6352 47.5 21.2109 47.5H0.324574ZM13.12 38.4318H20.0746C22.4837 38.4318 24.3473 37.9697 25.6655 37.0455C26.9988 36.1061 27.7867 34.8182 28.0291 33.1818C28.2261 31.9848 28.12 30.9545 27.7109 30.0909C27.3018 29.2121 26.62 28.5379 25.6655 28.0682C24.7109 27.5833 23.5064 27.3409 22.0518 27.3409H14.8928L13.12 38.4318ZM16.1428 20.0909H22.3928C23.6049 20.0909 24.7185 19.8864 25.7337 19.4773C26.764 19.0682 27.6125 18.4773 28.2791 17.7045C28.9609 16.9318 29.3852 16 29.5518 14.9091C29.8094 13.3485 29.4534 12.1212 28.4837 11.2273C27.514 10.3333 26.0973 9.88636 24.2337 9.88636H17.8246L16.1428 20.0909ZM42.8246 47.5L50.5518 0.954544H69.7791C73.264 0.954544 76.1731 1.58333 78.5064 2.84091C80.8397 4.08333 82.4988 5.87121 83.4837 8.20454C84.4685 10.5227 84.6958 13.2727 84.1655 16.4545C83.6503 19.6667 82.4988 22.4015 80.7109 24.6591C78.9382 26.9015 76.6503 28.6136 73.8473 29.7955C71.0594 30.9773 67.8928 31.5682 64.3473 31.5682H52.1882L53.6882 22.7045H63.7564C65.4382 22.7045 66.8928 22.4848 68.12 22.0455C69.3473 21.5909 70.3246 20.9091 71.0518 20C71.7943 19.0758 72.2867 17.8939 72.5291 16.4545C72.7564 15.0151 72.6503 13.8258 72.2109 12.8864C71.7867 11.9318 71.0367 11.2197 69.9609 10.75C68.9003 10.2652 67.5367 10.0227 65.87 10.0227H60.3246L54.0746 47.5H42.8246ZM72.5518 26.2273L80.62 47.5H68.3473L60.5291 26.2273H72.5518ZM133.381 24.9545C132.533 29.9697 130.866 34.2045 128.381 37.6591C125.912 41.0985 122.904 43.7045 119.359 45.4773C115.828 47.25 112.033 48.1364 107.972 48.1364C103.684 48.1364 99.9723 47.1818 96.8359 45.2727C93.6996 43.3636 91.4193 40.5833 89.995 36.9318C88.5859 33.2803 88.3132 28.8485 89.1768 23.6364C89.995 18.6212 91.639 14.3788 94.1087 10.9091C96.5935 7.43939 99.6162 4.8106 103.177 3.02272C106.753 1.21969 110.586 0.31818 114.677 0.31818C118.934 0.31818 122.624 1.2803 125.745 3.20454C128.881 5.12879 131.154 7.92424 132.563 11.5909C133.972 15.2576 134.245 19.7121 133.381 24.9545ZM122.131 23.6364C122.601 20.7121 122.601 18.25 122.131 16.25C121.677 14.25 120.783 12.7424 119.45 11.7273C118.116 10.697 116.381 10.1818 114.245 10.1818C111.881 10.1818 109.745 10.7651 107.836 11.9318C105.942 13.0833 104.359 14.7651 103.086 16.9773C101.813 19.1742 100.927 21.8333 100.427 24.9545C99.9117 27.9091 99.8965 30.3712 100.381 32.3409C100.881 34.3106 101.813 35.7955 103.177 36.7955C104.54 37.7803 106.275 38.2727 108.381 38.2727C110.73 38.2727 112.844 37.7045 114.722 36.5682C116.601 35.4318 118.169 33.7727 119.427 31.5909C120.7 29.4091 121.601 26.7576 122.131 23.6364ZM145.046 47.5L139.228 0.954544H151.66L153.66 31.4545H154.046L167.092 0.954544H177.228L180.228 31.5227H180.592L192.683 0.954544H205.092L183.842 47.5H173.001L169.342 19.2727H168.978L155.864 47.5H145.046ZM231.972 15C232.094 13.2879 231.639 11.9621 230.609 11.0227C229.594 10.0833 227.987 9.61364 225.79 9.61364C224.336 9.61364 223.094 9.80303 222.063 10.1818C221.033 10.5455 220.222 11.0606 219.631 11.7273C219.04 12.3788 218.669 13.1364 218.518 14C218.381 14.6818 218.419 15.2879 218.631 15.8182C218.844 16.3485 219.215 16.8182 219.745 17.2273C220.29 17.6364 220.965 17.9924 221.768 18.2955C222.586 18.5985 223.503 18.8636 224.518 19.0909L228.336 20C230.548 20.5 232.465 21.1667 234.086 22C235.722 22.8182 237.048 23.8106 238.063 24.9773C239.078 26.1288 239.775 27.4545 240.154 28.9545C240.533 30.4545 240.563 32.1364 240.245 34C239.76 36.9394 238.601 39.4621 236.768 41.5682C234.95 43.6742 232.571 45.2879 229.631 46.4091C226.707 47.5303 223.306 48.0909 219.427 48.0909C215.548 48.0909 212.253 47.5076 209.54 46.3409C206.844 45.1591 204.889 43.3788 203.677 41C202.465 38.6212 202.139 35.6212 202.7 32H213.45C213.283 33.5 213.472 34.75 214.018 35.75C214.578 36.75 215.442 37.5076 216.609 38.0227C217.775 38.5379 219.184 38.7955 220.836 38.7955C222.351 38.7955 223.677 38.5909 224.813 38.1818C225.965 37.7727 226.881 37.2045 227.563 36.4773C228.26 35.75 228.684 34.9167 228.836 33.9773C228.987 33.1136 228.844 32.3636 228.404 31.7273C227.98 31.0909 227.253 30.5379 226.222 30.0682C225.207 29.5985 223.874 29.1742 222.222 28.7955L217.563 27.6591C213.715 26.7197 210.798 25.2197 208.813 23.1591C206.844 21.0985 206.147 18.303 206.722 14.7727C207.207 11.8788 208.404 9.34848 210.313 7.18182C212.237 5.01515 214.669 3.33333 217.609 2.13636C220.563 0.924241 223.813 0.31818 227.359 0.31818C230.965 0.31818 233.995 0.931816 236.45 2.15909C238.919 3.37121 240.7 5.08333 241.79 7.29545C242.897 9.49242 243.215 12.0606 242.745 15H231.972ZM243.7 47.5L251.427 0.954544H283.881L282.336 10.0909H261.131L259.586 19.6364H279.131L277.586 28.7955H258.04L256.495 38.3636H277.7L276.154 47.5H243.7ZM316.677 23.5H312.518C312.472 22.2841 312.222 21.2159 311.768 20.2955C311.313 19.375 310.7 18.6023 309.927 17.9773C309.165 17.3409 308.29 16.8636 307.302 16.5455C306.313 16.2273 305.256 16.0682 304.131 16.0682C301.972 16.0682 299.927 16.6193 297.995 17.7216C296.063 18.8125 294.41 20.4205 293.035 22.5455C291.66 24.6591 290.722 27.25 290.222 30.3182C289.722 33.2955 289.796 35.8011 290.444 37.8352C291.092 39.8693 292.165 41.4091 293.665 42.4545C295.165 43.5 296.95 44.0227 299.018 44.0227C300.211 44.0227 301.381 43.8636 302.529 43.5455C303.688 43.2273 304.768 42.7557 305.768 42.1307C306.779 41.4943 307.677 40.7159 308.461 39.7955C309.256 38.8636 309.881 37.7955 310.336 36.5909H314.563C313.938 38.375 313.092 39.9716 312.023 41.3807C310.967 42.7898 309.745 43.9886 308.359 44.9773C306.972 45.9545 305.478 46.6989 303.876 47.2102C302.273 47.7216 300.609 47.9773 298.881 47.9773C295.859 47.9773 293.285 47.2386 291.16 45.7614C289.046 44.2727 287.535 42.1705 286.626 39.4545C285.728 36.7273 285.586 33.5 286.2 29.7727C286.813 26.1364 287.989 23 289.728 20.3636C291.467 17.7159 293.597 15.6818 296.12 14.2614C298.643 12.8295 301.381 12.1136 304.336 12.1136C306.109 12.1136 307.739 12.3693 309.228 12.8807C310.717 13.392 312.012 14.142 313.114 15.1307C314.217 16.108 315.075 17.3011 315.688 18.7102C316.313 20.108 316.643 21.7045 316.677 23.5ZM320.985 47.5H316.553L335.167 12.5909H339.531L346.553 47.5H342.121L336.599 18.1136H336.326L320.985 47.5ZM324.871 33.8636H342.735L342.121 37.6136H324.258L324.871 33.8636ZM351.185 16.3409L351.799 12.5909H377.981L377.367 16.3409H366.39L361.208 47.5H356.981L362.163 16.3409H351.185ZM378.71 47.5L384.505 12.5909H405.573L404.96 16.3409H388.119L386.141 28.1364H401.891L401.278 31.8864H385.528L383.55 43.75H400.664L400.05 47.5H378.71ZM435.215 23.5C435.045 22.3523 434.749 21.3239 434.329 20.4148C433.92 19.4943 433.374 18.7159 432.692 18.0795C432.011 17.4318 431.187 16.9375 430.221 16.5966C429.266 16.2443 428.158 16.0682 426.897 16.0682C424.829 16.0682 422.829 16.6023 420.897 17.6705C418.977 18.7386 417.312 20.3125 415.903 22.392C414.505 24.4716 413.556 27.0227 413.056 30.0455C412.556 33.0682 412.607 35.6193 413.21 37.6989C413.823 39.7784 414.874 41.3523 416.363 42.4205C417.863 43.4886 419.692 44.0227 421.852 44.0227C423.852 44.0227 425.715 43.5966 427.442 42.7443C429.17 41.8807 430.619 40.6648 431.789 39.0966C432.96 37.517 433.715 35.6591 434.056 33.5227L435.283 33.7955H424.783L425.465 30.0455H438.761L438.079 33.7955C437.624 36.6818 436.613 39.1875 435.045 41.3125C433.477 43.4375 431.522 45.0795 429.181 46.2386C426.84 47.3977 424.283 47.9773 421.511 47.9773C418.42 47.9773 415.829 47.25 413.738 45.7955C411.647 44.3409 410.175 42.2727 409.323 39.5909C408.471 36.9091 408.352 33.7273 408.965 30.0455C409.408 27.2841 410.181 24.8011 411.283 22.5966C412.397 20.3807 413.761 18.4943 415.374 16.9375C416.999 15.3807 418.812 14.1875 420.812 13.358C422.823 12.5284 424.942 12.1136 427.17 12.1136C429.011 12.1136 430.681 12.392 432.181 12.9489C433.692 13.4943 434.994 14.2727 436.085 15.2841C437.175 16.2841 438.022 17.483 438.624 18.8807C439.227 20.267 439.545 21.8068 439.579 23.5H435.215ZM475.387 30.3182C474.773 33.9545 473.597 37.0966 471.859 39.7443C470.12 42.3807 467.995 44.4148 465.484 45.8466C462.972 47.267 460.251 47.9773 457.319 47.9773C454.296 47.9773 451.722 47.2386 449.597 45.7614C447.484 44.2727 445.972 42.1705 445.063 39.4545C444.165 36.7273 444.023 33.5 444.637 29.7727C445.251 26.1364 446.427 23 448.165 20.3636C449.904 17.7159 452.035 15.6818 454.558 14.2614C457.08 12.8295 459.819 12.1136 462.773 12.1136C465.773 12.1136 468.325 12.858 470.427 14.3466C472.54 15.8239 474.046 17.9261 474.944 20.6534C475.853 23.3693 476.001 26.5909 475.387 30.3182ZM471.364 29.7727C471.864 26.7955 471.79 24.2898 471.143 22.2557C470.495 20.2216 469.421 18.6818 467.921 17.6364C466.421 16.5909 464.637 16.0682 462.569 16.0682C460.41 16.0682 458.364 16.6193 456.433 17.7216C454.501 18.8125 452.847 20.4205 451.472 22.5455C450.097 24.6591 449.16 27.25 448.66 30.3182C448.16 33.2955 448.234 35.8011 448.881 37.8352C449.529 39.8693 450.603 41.4091 452.103 42.4545C453.603 43.5 455.387 44.0227 457.455 44.0227C459.614 44.0227 461.66 43.4773 463.592 42.3864C465.523 41.2841 467.177 39.6761 468.552 37.5625C469.927 35.4375 470.864 32.8409 471.364 29.7727ZM479.631 47.5L485.427 12.5909H497.222C499.95 12.5909 502.109 13.0511 503.7 13.9716C505.302 14.892 506.387 16.1591 506.955 17.7727C507.535 19.3864 507.654 21.2273 507.313 23.2955C506.972 25.3409 506.245 27.1591 505.131 28.75C504.029 30.3409 502.529 31.5909 500.631 32.5C498.745 33.4091 496.45 33.8636 493.745 33.8636H484.2L484.881 30.0455H494.29C496.154 30.0455 497.7 29.7727 498.927 29.2273C500.154 28.6818 501.109 27.9034 501.79 26.892C502.472 25.8807 502.927 24.6818 503.154 23.2955C503.381 21.8864 503.319 20.6648 502.967 19.6307C502.626 18.5852 501.927 17.7784 500.87 17.2102C499.825 16.6307 498.359 16.3409 496.472 16.3409H489.04L483.859 47.5H479.631ZM498.654 31.8182L504.654 47.5H499.745L493.881 31.8182H498.654ZM520.357 12.5909L514.562 47.5H510.335L516.13 12.5909H520.357ZM523.038 47.5L528.833 12.5909H549.901L549.288 16.3409H532.447L530.469 28.1364H546.219L545.606 31.8864H529.856L527.879 43.75H544.992L544.379 47.5H523.038ZM575.112 21.5909C575.112 19.7159 574.492 18.2955 573.254 17.3295C572.015 16.3523 570.339 15.8636 568.225 15.8636C566.68 15.8636 565.288 16.1136 564.049 16.6136C562.81 17.1136 561.799 17.8011 561.015 18.6761C560.231 19.5511 559.748 20.5455 559.566 21.6591C559.418 22.5909 559.515 23.392 559.856 24.0625C560.197 24.7216 560.68 25.2727 561.305 25.7159C561.941 26.1477 562.623 26.5057 563.35 26.7898C564.077 27.0625 564.748 27.2841 565.362 27.4545L568.771 28.4091C569.623 28.6477 570.572 28.9773 571.617 29.3977C572.663 29.8182 573.64 30.392 574.549 31.1193C575.458 31.8352 576.151 32.7557 576.629 33.8807C577.117 35.0057 577.225 36.3864 576.952 38.0227C576.634 39.9091 575.856 41.6136 574.617 43.1364C573.39 44.6591 571.765 45.8693 569.742 46.767C567.731 47.6648 565.384 48.1136 562.702 48.1136C560.202 48.1136 558.1 47.7102 556.396 46.9034C554.702 46.0966 553.452 44.9716 552.646 43.5284C551.85 42.0852 551.543 40.4091 551.725 38.5H556.089C555.975 39.8182 556.237 40.9091 556.873 41.7727C557.509 42.625 558.396 43.2614 559.532 43.6818C560.668 44.0909 561.93 44.2955 563.316 44.2955C564.93 44.2955 566.418 44.0341 567.782 43.5114C569.157 42.9773 570.293 42.2386 571.191 41.2955C572.1 40.3409 572.657 39.2273 572.862 37.9545C573.066 36.7955 572.907 35.8523 572.384 35.125C571.862 34.3977 571.106 33.8068 570.117 33.3523C569.129 32.8977 568.043 32.5 566.862 32.1591L562.771 30.9318C560.18 30.1477 558.208 29.0284 556.856 27.5739C555.515 26.1193 555.032 24.2159 555.407 21.8636C555.748 19.9091 556.572 18.2045 557.879 16.75C559.185 15.2841 560.805 14.1477 562.737 13.3409C564.668 12.5227 566.748 12.1136 568.975 12.1136C571.225 12.1136 573.151 12.5227 574.754 13.3409C576.356 14.1477 577.549 15.267 578.333 16.6989C579.117 18.1193 579.407 19.75 579.202 21.5909H575.112Z" fill="white"/>
</svg>
