<svg width="299" height="36" viewBox="0 0 299 36" fill="none" xmlns="http://www.w3.org/2000/svg">
<path d="M16.0029 35.528C12.8989 35.528 10.1789 34.936 7.84291 33.752C5.53891 32.568 3.74691 30.856 2.46691 28.616C1.18691 26.376 0.546906 23.672 0.546906 20.504C0.546906 17.624 0.962906 14.968 1.79491 12.536C2.65891 10.104 3.87491 8.008 5.44291 6.248C7.04291 4.456 8.94691 3.08 11.1549 2.12C13.3629 1.128 15.8429 0.631999 18.5949 0.631999C21.7309 0.631999 24.4509 1.224 26.7549 2.408C29.0909 3.592 30.8829 5.304 32.1309 7.544C33.4109 9.784 34.0509 12.472 34.0509 15.608C34.0509 18.52 33.6349 21.192 32.8029 23.624C31.9709 26.056 30.7549 28.168 29.1549 29.96C27.5869 31.72 25.6989 33.096 23.4909 34.088C21.2829 35.048 18.7869 35.528 16.0029 35.528ZM16.1469 29.192C18.2909 29.192 20.1149 28.616 21.6189 27.464C23.1549 26.312 24.3229 24.728 25.1229 22.712C25.9229 20.664 26.3229 18.344 26.3229 15.752C26.3229 12.776 25.6189 10.568 24.2109 9.128C22.8029 7.688 20.8829 6.968 18.4509 6.968C16.3069 6.968 14.4829 7.544 12.9789 8.696C11.4749 9.816 10.3229 11.384 9.52291 13.4C8.72291 15.416 8.32291 17.752 8.32291 20.408C8.32291 23.352 9.01091 25.56 10.3869 27.032C11.7949 28.472 13.7149 29.192 16.1469 29.192ZM52.19 35.528C49.982 35.528 47.998 35.208 46.238 34.568C44.478 33.928 43.006 32.968 41.822 31.688C40.638 30.408 39.806 28.792 39.326 26.84C38.846 24.888 38.814 22.6 39.23 19.976L42.206 1.16H49.694L46.622 20.456C46.206 23.272 46.494 25.432 47.486 26.936C48.51 28.44 50.27 29.192 52.766 29.192C55.07 29.192 56.894 28.584 58.238 27.368C59.582 26.12 60.478 24.2 60.926 21.608L64.142 1.16H71.534L68.318 21.368C67.838 24.408 66.958 26.984 65.678 29.096C64.43 31.208 62.702 32.808 60.494 33.896C58.286 34.984 55.518 35.528 52.19 35.528ZM72.743 35L78.119 1.16H91.991C94.519 1.16 96.647 1.544 98.375 2.312C100.103 3.08 101.415 4.168 102.311 5.576C103.207 6.984 103.655 8.68 103.655 10.664C103.655 13.224 103.095 15.336 101.975 17C100.855 18.632 99.303 19.848 97.319 20.648C95.335 21.416 93.079 21.8 90.551 21.8V20.984H92.087C93.655 20.984 94.935 21.432 95.927 22.328C96.919 23.192 97.719 24.392 98.327 25.928L101.783 35H94.151L90.263 24.728C90.007 24.056 89.703 23.512 89.351 23.096C88.999 22.68 88.567 22.376 88.055 22.184C87.575 21.992 86.967 21.896 86.231 21.896H82.247L80.231 35H72.743ZM83.111 16.52H90.407C92.359 16.52 93.863 16.088 94.919 15.224C95.975 14.328 96.503 13.016 96.503 11.288C96.503 9.848 96.039 8.776 95.111 8.072C94.215 7.336 92.775 6.968 90.791 6.968H84.647L83.111 16.52ZM106.393 35L110.425 9.62H119.569C121.297 9.62 122.761 9.872 123.961 10.376C125.185 10.88 126.109 11.648 126.733 12.68C127.381 13.688 127.705 14.948 127.705 16.46C127.705 18.164 127.333 19.652 126.589 20.924C125.869 22.196 124.801 23.18 123.385 23.876C121.993 24.548 120.277 24.884 118.237 24.884H110.965L109.345 35H106.393ZM111.361 22.4H118.381C120.469 22.4 122.053 21.908 123.133 20.924C124.213 19.94 124.753 18.512 124.753 16.64C124.753 15.056 124.285 13.904 123.349 13.184C122.437 12.44 121.093 12.068 119.317 12.068H112.981L111.361 22.4ZM129.174 35L133.206 9.62H142.242C144.066 9.62 145.59 9.896 146.814 10.448C148.038 11 148.95 11.792 149.55 12.824C150.174 13.832 150.486 15.044 150.486 16.46C150.486 18.164 150.078 19.604 149.262 20.78C148.47 21.932 147.378 22.796 145.986 23.372C144.594 23.924 143.01 24.188 141.234 24.164V23.696H141.81C142.866 23.696 143.73 23.996 144.402 24.596C145.074 25.196 145.614 26.048 146.022 27.152L149.046 35H146.022L143.034 27.116C142.77 26.42 142.458 25.868 142.098 25.46C141.738 25.052 141.294 24.752 140.766 24.56C140.238 24.368 139.578 24.272 138.786 24.272H133.818L132.126 35H129.174ZM134.214 21.932H141.414C143.334 21.932 144.834 21.476 145.914 20.564C146.994 19.652 147.534 18.344 147.534 16.64C147.534 15.128 147.09 13.988 146.202 13.22C145.314 12.452 143.886 12.068 141.918 12.068H135.762L134.214 21.932ZM164.564 35.324C162.452 35.324 160.604 34.904 159.02 34.064C157.46 33.224 156.236 31.988 155.348 30.356C154.484 28.724 154.052 26.744 154.052 24.416C154.052 22.28 154.34 20.3 154.916 18.476C155.492 16.628 156.32 15.02 157.4 13.652C158.504 12.284 159.848 11.216 161.432 10.448C163.04 9.68 164.876 9.296 166.94 9.296C169.076 9.296 170.924 9.716 172.484 10.556C174.068 11.396 175.292 12.632 176.156 14.264C177.02 15.872 177.452 17.84 177.452 20.168C177.452 22.328 177.164 24.332 176.588 26.18C176.012 28.004 175.172 29.6 174.068 30.968C172.988 32.336 171.644 33.404 170.036 34.172C168.452 34.94 166.628 35.324 164.564 35.324ZM164.636 32.696C166.724 32.696 168.488 32.156 169.928 31.076C171.368 29.972 172.46 28.484 173.204 26.612C173.948 24.716 174.32 22.58 174.32 20.204C174.32 17.42 173.648 15.344 172.304 13.976C170.984 12.608 169.16 11.924 166.832 11.924C164.768 11.924 163.016 12.476 161.576 13.58C160.136 14.66 159.044 16.136 158.3 18.008C157.556 19.88 157.184 22.004 157.184 24.38C157.184 27.188 157.844 29.276 159.164 30.644C160.484 32.012 162.308 32.696 164.636 32.696ZM180.678 35L184.71 9.62H192.162C196.002 9.62 198.954 10.544 201.018 12.392C203.106 14.24 204.162 16.856 204.186 20.24C204.186 22.28 203.898 24.188 203.322 25.964C202.746 27.74 201.87 29.312 200.694 30.68C199.518 32.024 198.03 33.08 196.23 33.848C194.43 34.616 192.282 35 189.786 35H180.678ZM184.026 32.48H189.858C191.874 32.48 193.59 32.168 195.006 31.544C196.446 30.896 197.61 30.008 198.498 28.88C199.386 27.752 200.034 26.456 200.442 24.992C200.85 23.504 201.054 21.932 201.054 20.276C201.054 17.636 200.298 15.62 198.786 14.228C197.298 12.836 195.078 12.14 192.126 12.14H187.266L184.026 32.48ZM217.729 35.324C216.121 35.324 214.693 35.096 213.445 34.64C212.221 34.184 211.213 33.5 210.421 32.588C209.653 31.652 209.125 30.5 208.837 29.132C208.573 27.74 208.585 26.132 208.873 24.308L211.213 9.62H214.165L211.825 24.56C211.393 27.272 211.681 29.312 212.689 30.68C213.721 32.024 215.449 32.696 217.873 32.696C220.225 32.696 222.073 32.096 223.417 30.896C224.761 29.696 225.649 27.788 226.081 25.172L228.565 9.62H231.481L229.033 25.316C228.673 27.5 228.037 29.336 227.125 30.824C226.213 32.312 224.977 33.44 223.417 34.208C221.857 34.952 219.961 35.324 217.729 35.324ZM245.54 35.324C243.404 35.324 241.508 34.916 239.852 34.1C238.22 33.26 236.936 32 236 30.32C235.064 28.64 234.596 26.516 234.596 23.948C234.596 21.86 234.896 19.928 235.496 18.152C236.096 16.376 236.96 14.828 238.088 13.508C239.24 12.188 240.62 11.156 242.228 10.412C243.86 9.668 245.696 9.296 247.736 9.296C249.512 9.296 251.108 9.584 252.524 10.16C253.964 10.736 255.14 11.528 256.052 12.536L254.72 14.912C253.736 13.928 252.668 13.196 251.516 12.716C250.364 12.236 249.068 11.996 247.628 11.996C245.588 11.996 243.824 12.512 242.336 13.544C240.872 14.576 239.744 15.992 238.952 17.792C238.16 19.568 237.764 21.596 237.764 23.876C237.764 25.94 238.076 27.62 238.7 28.916C239.348 30.212 240.272 31.16 241.472 31.76C242.672 32.336 244.112 32.624 245.792 32.624C247.112 32.624 248.336 32.396 249.464 31.94C250.592 31.484 251.732 30.764 252.884 29.78L253.964 32.156C253.22 32.828 252.392 33.404 251.48 33.884C250.592 34.364 249.644 34.724 248.636 34.964C247.628 35.204 246.596 35.324 245.54 35.324ZM263.651 35L267.287 12.176H258.071L258.467 9.62H279.887L279.491 12.176H270.239L266.639 35H263.651ZM287.165 35.324C285.941 35.324 284.741 35.216 283.565 35C282.413 34.784 281.321 34.448 280.289 33.992C279.257 33.536 278.321 32.948 277.481 32.228L278.705 29.96C279.593 30.656 280.493 31.208 281.405 31.616C282.317 32 283.265 32.276 284.249 32.444C285.257 32.612 286.313 32.696 287.417 32.696C288.713 32.696 289.841 32.516 290.801 32.156C291.761 31.796 292.505 31.28 293.033 30.608C293.585 29.912 293.861 29.108 293.861 28.196C293.861 27.548 293.705 26.972 293.393 26.468C293.105 25.94 292.613 25.484 291.917 25.1C291.245 24.692 290.321 24.368 289.145 24.128L285.437 23.228C283.757 22.82 282.413 22.124 281.405 21.14C280.397 20.156 279.893 18.74 279.893 16.892C279.893 15.74 280.133 14.696 280.613 13.76C281.117 12.824 281.801 12.032 282.665 11.384C283.529 10.712 284.537 10.196 285.689 9.836C286.841 9.476 288.065 9.296 289.361 9.296C290.969 9.296 292.553 9.548 294.113 10.052C295.697 10.556 297.053 11.372 298.181 12.5L296.921 14.768C295.841 13.736 294.641 13.004 293.321 12.572C292.025 12.14 290.681 11.924 289.289 11.924C288.089 11.924 286.997 12.128 286.013 12.536C285.029 12.92 284.261 13.472 283.709 14.192C283.157 14.888 282.881 15.728 282.881 16.712C282.881 17.912 283.181 18.812 283.781 19.412C284.405 19.988 285.317 20.432 286.517 20.744L290.261 21.608C292.517 22.136 294.173 22.94 295.229 24.02C296.309 25.076 296.849 26.36 296.849 27.872C296.849 29.072 296.597 30.14 296.093 31.076C295.589 32.012 294.893 32.792 294.005 33.416C293.117 34.04 292.085 34.52 290.909 34.856C289.757 35.168 288.509 35.324 287.165 35.324Z" fill="black"/>
</svg>
