<svg width="556" height="37" viewBox="0 0 556 37" fill="none" xmlns="http://www.w3.org/2000/svg">
<path d="M0.921342 1.09091H10.3475L15.2907 15.6989H15.6486L25.4157 1.09091H34.8418L18.2225 24.3409L16.2793 36H7.89293L9.85316 24.3409L0.921342 1.09091ZM66.0478 19.0909C65.4114 22.8523 64.1614 26.0284 62.2978 28.6193C60.4455 31.1989 58.1898 33.1534 55.5307 34.483C52.883 35.8125 50.0364 36.4773 46.9909 36.4773C43.775 36.4773 40.9909 35.7614 38.6387 34.3295C36.2864 32.8977 34.5762 30.8125 33.508 28.0739C32.4512 25.3352 32.2466 22.0114 32.8944 18.1023C33.508 14.3409 34.7409 11.1591 36.5932 8.55682C38.4569 5.95454 40.7239 3.98295 43.3944 2.64204C46.0762 1.28977 48.9512 0.613635 52.0194 0.613635C55.2125 0.613635 57.9796 1.33523 60.3205 2.77841C62.6728 4.22159 64.3773 6.31818 65.4341 9.06818C66.4909 11.8182 66.6955 15.1591 66.0478 19.0909ZM57.6103 18.1023C57.9625 15.9091 57.9625 14.0625 57.6103 12.5625C57.2694 11.0625 56.5989 9.93182 55.5989 9.17045C54.5989 8.39773 53.2978 8.01136 51.6955 8.01136C49.9228 8.01136 48.3205 8.44886 46.8887 9.32386C45.4682 10.1875 44.2807 11.4489 43.3262 13.108C42.3716 14.7557 41.7069 16.75 41.3319 19.0909C40.9455 21.3068 40.9341 23.1534 41.2978 24.6307C41.6728 26.108 42.3716 27.2216 43.3944 27.9716C44.4171 28.7102 45.7182 29.0795 47.2978 29.0795C49.0591 29.0795 50.6444 28.6534 52.0534 27.8011C53.4625 26.9489 54.6387 25.7045 55.5819 24.0682C56.5364 22.4318 57.2125 20.4432 57.6103 18.1023ZM95.0762 1.09091H103.497L99.7637 23.608C99.3319 26.2102 98.3375 28.4773 96.7807 30.4091C95.2353 32.3295 93.2637 33.8182 90.8659 34.875C88.4682 35.9205 85.7978 36.4432 82.8546 36.4432C79.9 36.4432 77.4057 35.9205 75.3716 34.875C73.3375 33.8182 71.8659 32.3295 70.9569 30.4091C70.0478 28.4773 69.8034 26.2102 70.2239 23.608L73.9569 1.09091H82.3944L78.7637 22.875C78.5705 24.0795 78.6614 25.1534 79.0364 26.0966C79.4228 27.0284 80.0478 27.767 80.9114 28.3125C81.775 28.8466 82.8319 29.1136 84.0819 29.1136C85.3432 29.1136 86.4966 28.8466 87.5421 28.3125C88.5875 27.767 89.4512 27.0284 90.133 26.0966C90.8148 25.1534 91.2523 24.0795 91.4455 22.875L95.0762 1.09091ZM102.99 36L108.785 1.09091H123.205C125.819 1.09091 128.001 1.5625 129.751 2.50568C131.501 3.4375 132.745 4.77841 133.484 6.52841C134.222 8.26704 134.393 10.3295 133.995 12.7159C133.609 15.125 132.745 17.1761 131.404 18.8693C130.075 20.5511 128.359 21.8352 126.257 22.7216C124.166 23.608 121.791 24.0511 119.132 24.0511H110.012L111.137 17.4034H118.688C119.95 17.4034 121.041 17.2386 121.961 16.9091C122.882 16.5682 123.615 16.0568 124.16 15.375C124.717 14.6818 125.086 13.7955 125.268 12.7159C125.438 11.6364 125.359 10.7443 125.029 10.0398C124.711 9.32386 124.149 8.78977 123.342 8.4375C122.546 8.07386 121.524 7.89205 120.274 7.89205H116.115L111.427 36H102.99ZM125.285 20.0455L131.336 36H122.132L116.268 20.0455H125.285ZM158.038 11.625C158.129 10.3409 157.788 9.34659 157.015 8.64205C156.254 7.9375 155.049 7.58523 153.401 7.58523C152.311 7.58523 151.379 7.72727 150.606 8.01136C149.833 8.28409 149.225 8.67045 148.782 9.17045C148.339 9.65909 148.061 10.2273 147.947 10.875C147.845 11.3864 147.873 11.8409 148.032 12.2386C148.191 12.6364 148.47 12.9886 148.867 13.2955C149.276 13.6023 149.782 13.8693 150.384 14.0966C150.998 14.3239 151.686 14.5227 152.447 14.6932L155.311 15.375C156.97 15.75 158.407 16.25 159.623 16.875C160.85 17.4886 161.845 18.233 162.606 19.108C163.367 19.9716 163.89 20.9659 164.174 22.0909C164.458 23.2159 164.481 24.4773 164.242 25.875C163.879 28.0795 163.009 29.9716 161.634 31.5511C160.271 33.1307 158.487 34.3409 156.282 35.1818C154.089 36.0227 151.538 36.4432 148.629 36.4432C145.72 36.4432 143.248 36.0057 141.214 35.1307C139.191 34.2443 137.725 32.9091 136.816 31.125C135.907 29.3409 135.663 27.0909 136.083 24.375H144.146C144.021 25.5 144.163 26.4375 144.572 27.1875C144.992 27.9375 145.64 28.5057 146.515 28.892C147.39 29.2784 148.447 29.4716 149.686 29.4716C150.822 29.4716 151.816 29.3182 152.669 29.0114C153.532 28.7045 154.22 28.2784 154.731 27.733C155.254 27.1875 155.572 26.5625 155.686 25.858C155.799 25.2102 155.691 24.6477 155.362 24.1705C155.044 23.6932 154.498 23.2784 153.725 22.9261C152.964 22.5739 151.964 22.2557 150.725 21.9716L147.231 21.1193C144.345 20.4148 142.157 19.2898 140.669 17.7443C139.191 16.1989 138.669 14.1023 139.1 11.4545C139.464 9.28409 140.362 7.38636 141.794 5.76136C143.237 4.13636 145.061 2.875 147.265 1.97727C149.481 1.06818 151.919 0.613635 154.578 0.613635C157.282 0.613635 159.555 1.07386 161.396 1.99432C163.248 2.90341 164.583 4.1875 165.401 5.84659C166.231 7.49432 166.47 9.42045 166.117 11.625H158.038ZM202.339 1.09091L196.544 36H189.384L178.867 15.8523H178.629L175.271 36H166.833L172.629 1.09091H179.89L190.322 21.2045H190.612L193.919 1.09091H202.339ZM201.849 36L207.644 1.09091H231.985L230.826 7.94318H214.923L213.764 15.1023H228.423L227.264 21.9716H212.605L211.445 29.1477H227.349L226.19 36H201.849ZM239.025 36H229.957L247.531 1.09091H258.764L264.747 36H255.678L251.843 9.88636H251.57L239.025 36ZM240.116 22.2614H259.07L257.98 28.6705H239.025L240.116 22.2614ZM268.505 36L274.301 1.09091H282.738L280.301 15.8523H280.761L294.738 1.09091H304.676L289.761 16.6705L299.102 36H289.011L282.67 22.2784L278.511 26.5909L276.943 36H268.505ZM302.208 36L308.004 1.09091H332.345L331.186 7.94318H315.282L314.123 15.1023H328.782L327.623 21.9716H312.964L311.805 29.1477H327.708L326.549 36H302.208ZM331.833 36L337.629 1.09091H352.049C354.663 1.09091 356.845 1.5625 358.595 2.50568C360.345 3.4375 361.589 4.77841 362.328 6.52841C363.066 8.26704 363.237 10.3295 362.839 12.7159C362.453 15.125 361.589 17.1761 360.248 18.8693C358.919 20.5511 357.203 21.8352 355.1 22.7216C353.009 23.608 350.634 24.0511 347.975 24.0511H338.856L339.981 17.4034H347.532C348.794 17.4034 349.884 17.2386 350.805 16.9091C351.725 16.5682 352.458 16.0568 353.004 15.375C353.561 14.6818 353.93 13.7955 354.112 12.7159C354.282 11.6364 354.203 10.7443 353.873 10.0398C353.555 9.32386 352.992 8.78977 352.186 8.4375C351.39 8.07386 350.367 7.89205 349.117 7.89205H344.958L340.271 36H331.833ZM354.129 20.0455L360.18 36H350.975L345.112 20.0455H354.129ZM386.882 11.625C386.972 10.3409 386.632 9.34659 385.859 8.64205C385.097 7.9375 383.893 7.58523 382.245 7.58523C381.154 7.58523 380.222 7.72727 379.45 8.01136C378.677 8.28409 378.069 8.67045 377.626 9.17045C377.183 9.65909 376.904 10.2273 376.791 10.875C376.688 11.3864 376.717 11.8409 376.876 12.2386C377.035 12.6364 377.313 12.9886 377.711 13.2955C378.12 13.6023 378.626 13.8693 379.228 14.0966C379.842 14.3239 380.529 14.5227 381.291 14.6932L384.154 15.375C385.813 15.75 387.251 16.25 388.467 16.875C389.694 17.4886 390.688 18.233 391.45 19.108C392.211 19.9716 392.734 20.9659 393.018 22.0909C393.302 23.2159 393.325 24.4773 393.086 25.875C392.722 28.0795 391.853 29.9716 390.478 31.5511C389.115 33.1307 387.33 34.3409 385.126 35.1818C382.933 36.0227 380.382 36.4432 377.472 36.4432C374.563 36.4432 372.092 36.0057 370.058 35.1307C368.035 34.2443 366.569 32.9091 365.66 31.125C364.751 29.3409 364.507 27.0909 364.927 24.375H372.99C372.865 25.5 373.007 26.4375 373.416 27.1875C373.836 27.9375 374.484 28.5057 375.359 28.892C376.234 29.2784 377.291 29.4716 378.529 29.4716C379.666 29.4716 380.66 29.3182 381.512 29.0114C382.376 28.7045 383.063 28.2784 383.575 27.733C384.097 27.1875 384.416 26.5625 384.529 25.858C384.643 25.2102 384.535 24.6477 384.205 24.1705C383.887 23.6932 383.342 23.2784 382.569 22.9261C381.808 22.5739 380.808 22.2557 379.569 21.9716L376.075 21.1193C373.188 20.4148 371.001 19.2898 369.512 17.7443C368.035 16.1989 367.512 14.1023 367.944 11.4545C368.308 9.28409 369.205 7.38636 370.637 5.76136C372.08 4.13636 373.904 2.875 376.109 1.97727C378.325 1.06818 380.762 0.613635 383.421 0.613635C386.126 0.613635 388.399 1.07386 390.24 1.99432C392.092 2.90341 393.427 4.1875 394.245 5.84659C395.075 7.49432 395.313 9.42045 394.961 11.625H386.882ZM417.615 18C417.487 17.1392 417.265 16.3679 416.95 15.6861C416.643 14.9957 416.234 14.4119 415.722 13.9347C415.211 13.4489 414.593 13.0781 413.869 12.8224C413.153 12.5582 412.322 12.4261 411.376 12.4261C409.825 12.4261 408.325 12.8267 406.876 13.6278C405.436 14.429 404.187 15.6094 403.13 17.169C402.082 18.7287 401.37 20.642 400.995 22.9091C400.62 25.1761 400.659 27.0895 401.11 28.6491C401.57 30.2088 402.359 31.3892 403.475 32.1903C404.6 32.9915 405.972 33.392 407.592 33.392C409.092 33.392 410.49 33.0724 411.785 32.4332C413.08 31.7855 414.167 30.8736 415.045 29.6974C415.923 28.5128 416.49 27.1193 416.745 25.517L417.666 25.7216H409.791L410.302 22.9091H420.274L419.762 25.7216C419.421 27.8864 418.663 29.7656 417.487 31.3594C416.311 32.9531 414.845 34.1847 413.089 35.054C411.333 35.9233 409.416 36.358 407.336 36.358C405.018 36.358 403.075 35.8125 401.507 34.7216C399.938 33.6307 398.835 32.0795 398.195 30.0682C397.556 28.0568 397.467 25.6705 397.927 22.9091C398.259 20.8381 398.839 18.9759 399.666 17.3224C400.501 15.6605 401.524 14.2457 402.734 13.0781C403.953 11.9105 405.312 11.0156 406.812 10.3935C408.32 9.77131 409.91 9.46023 411.58 9.46023C412.961 9.46023 414.214 9.66903 415.339 10.0866C416.472 10.4957 417.448 11.0795 418.267 11.8381C419.085 12.5881 419.72 13.4872 420.171 14.5355C420.623 15.5753 420.862 16.7301 420.887 18H417.615ZM423.77 36H420.446L434.406 9.81818H437.679L442.946 36H439.622L435.48 13.9602H435.276L423.77 36ZM426.685 25.7727H440.083L439.622 28.5852H426.225L426.685 25.7727ZM447.024 36L451.371 9.81818H454.541L450.655 33.1875H462.825L462.365 36H447.024ZM467.274 36L471.621 9.81818H474.791L470.905 33.1875H483.075L482.615 36H467.274ZM487.524 36L491.871 9.81818H507.672L507.212 12.6307H494.581L493.098 21.4773H504.911L504.45 24.2898H492.638L491.155 33.1875H503.99L503.53 36H487.524ZM509.04 36L513.387 9.81818H522.233C524.279 9.81818 525.898 10.1634 527.091 10.8537C528.293 11.544 529.107 12.4943 529.533 13.7045C529.968 14.9148 530.057 16.2955 529.801 17.8466C529.546 19.3807 529 20.7443 528.165 21.9375C527.338 23.1307 526.213 24.0682 524.79 24.75C523.375 25.4318 521.654 25.7727 519.625 25.7727H512.466L512.977 22.9091H520.034C521.432 22.9091 522.591 22.7045 523.512 22.2955C524.432 21.8864 525.148 21.3026 525.659 20.544C526.171 19.7855 526.512 18.8864 526.682 17.8466C526.852 16.7898 526.806 15.8736 526.541 15.098C526.286 14.3139 525.762 13.7088 524.969 13.2827C524.185 12.848 523.085 12.6307 521.671 12.6307H516.097L512.21 36H509.04ZM523.307 24.2386L527.807 36H524.125L519.727 24.2386H523.307ZM533.285 9.81818H536.916L542.183 22.0398H542.49L551.745 9.81818H555.376L543.359 25.2102L541.569 36H538.399L540.188 25.2102L533.285 9.81818Z" fill="black"/>
</svg>
