<svg width="177" height="36" viewBox="0 0 177 36" fill="none" xmlns="http://www.w3.org/2000/svg">
<path d="M0.671165 35L6.46662 0.0909081H20.8871C23.5007 0.0909081 25.6825 0.562499 27.4325 1.50568C29.1825 2.4375 30.4268 3.77841 31.1655 5.52841C31.9041 7.26704 32.0746 9.32954 31.6768 11.7159C31.2905 14.125 30.4268 16.1761 29.0859 17.8693C27.7564 19.5511 26.0405 20.8352 23.9382 21.7216C21.8473 22.608 19.4723 23.0511 16.8132 23.0511H7.69389L8.81889 16.4034H16.37C17.6314 16.4034 18.7223 16.2386 19.6428 15.9091C20.5632 15.5682 21.2962 15.0568 21.8416 14.375C22.3984 13.6818 22.7678 12.7955 22.9496 11.7159C23.12 10.6364 23.0405 9.74432 22.7109 9.03977C22.3928 8.32386 21.8303 7.78977 21.0234 7.4375C20.228 7.07386 19.2053 6.89205 17.9553 6.89205H13.7962L9.10867 35H0.671165ZM22.9666 19.0455L29.0178 35H19.8132L13.9496 19.0455H22.9666ZM40.3786 35H31.3104L48.8842 0.0909081H60.1172L66.1001 35H57.032L53.1967 8.88636H52.924L40.3786 35ZM41.4695 21.2614H60.424L59.3331 27.6705H40.3786L41.4695 21.2614ZM68.9936 6.94318L70.1527 0.0909081H99.6584L98.4993 6.94318H87.9141L83.2777 35H74.9595L79.5959 6.94318H68.9936ZM97.9837 35L103.779 0.0909081H128.12L126.961 6.94318H111.058L109.898 14.1023H124.558L123.398 20.9716H108.739L107.58 28.1477H123.484L122.325 35H97.9837ZM150.211 8.81818H153.381L150.518 26.1534C150.219 27.9432 149.533 29.5412 148.46 30.9474C147.386 32.3452 146.018 33.4489 144.356 34.2585C142.694 35.0597 140.836 35.4602 138.782 35.4602C136.728 35.4602 135.006 35.0597 133.617 34.2585C132.228 33.4489 131.231 32.3452 130.626 30.9474C130.021 29.5412 129.867 27.9432 130.165 26.1534L133.029 8.81818H136.2L133.362 25.8977C133.157 27.1761 133.255 28.3139 133.656 29.3111C134.056 30.2997 134.729 31.0795 135.675 31.6506C136.63 32.2131 137.836 32.4943 139.293 32.4943C140.751 32.4943 142.05 32.2131 143.192 31.6506C144.335 31.0795 145.263 30.2997 145.979 29.3111C146.704 28.3139 147.168 27.1761 147.373 25.8977L150.211 8.81818ZM172.906 15.5682C172.906 14.1619 172.441 13.0966 171.512 12.3722C170.583 11.6392 169.326 11.2727 167.741 11.2727C166.582 11.2727 165.538 11.4602 164.609 11.8352C163.68 12.2102 162.922 12.7259 162.333 13.3821C161.745 14.0384 161.383 14.7841 161.247 15.6193C161.136 16.3182 161.208 16.919 161.464 17.4219C161.72 17.9162 162.082 18.3295 162.551 18.6619C163.028 18.9858 163.539 19.2543 164.085 19.4673C164.63 19.6719 165.133 19.8381 165.593 19.9659L168.15 20.6818C168.789 20.8608 169.501 21.108 170.285 21.4233C171.069 21.7386 171.802 22.169 172.484 22.7145C173.166 23.2514 173.686 23.9418 174.044 24.7855C174.41 25.6293 174.491 26.6648 174.287 27.892C174.048 29.3068 173.464 30.5852 172.535 31.7273C171.615 32.8693 170.396 33.777 168.879 34.4503C167.37 35.1236 165.61 35.4602 163.599 35.4602C161.724 35.4602 160.147 35.1577 158.869 34.5526C157.599 33.9474 156.662 33.1037 156.056 32.0213C155.46 30.9389 155.23 29.6818 155.366 28.25H158.639C158.554 29.2386 158.75 30.0568 159.227 30.7045C159.704 31.3437 160.369 31.821 161.221 32.1364C162.074 32.4432 163.02 32.5966 164.059 32.5966C165.27 32.5966 166.386 32.4006 167.409 32.0085C168.44 31.608 169.292 31.054 169.966 30.3466C170.647 29.6307 171.065 28.7955 171.218 27.8409C171.372 26.9716 171.252 26.2642 170.86 25.7188C170.468 25.1733 169.902 24.7301 169.16 24.3892C168.419 24.0483 167.605 23.75 166.718 23.4943L163.65 22.5739C161.707 21.9858 160.228 21.1463 159.214 20.0554C158.208 18.9645 157.846 17.5369 158.127 15.7727C158.383 14.3068 159.001 13.0284 159.981 11.9375C160.961 10.8381 162.176 9.98579 163.625 9.38068C165.074 8.76704 166.633 8.46023 168.304 8.46023C169.991 8.46023 171.436 8.76704 172.637 9.38068C173.839 9.98579 174.734 10.8253 175.322 11.8991C175.91 12.9645 176.127 14.1875 175.974 15.5682H172.906Z" fill="white"/>
</svg>
