<svg width="534" height="36" viewBox="0 0 534 36" fill="none" xmlns="http://www.w3.org/2000/svg">
<path d="M33.9221 1.16L17.9381 24.248L16.0181 35H6.61006L8.48206 24.248L0.658063 1.16H11.4101L15.0581 14.264L23.3141 1.16H33.9221ZM47.1783 35.336C44.3303 35.336 41.8183 34.744 39.6423 33.56C37.4663 32.376 35.7863 30.712 34.6023 28.568C33.4183 26.424 32.8263 23.96 32.8263 21.176C32.8263 17.176 33.6583 13.624 35.3223 10.52C37.0183 7.384 39.3703 4.952 42.3783 3.224C45.4183 1.496 48.8903 0.631999 52.7943 0.631999C55.7063 0.631999 58.2503 1.224 60.4263 2.408C62.6343 3.56 64.3303 5.208 65.5143 7.352C66.6983 9.464 67.2903 11.912 67.2903 14.696C67.2903 18.664 66.4423 22.216 64.7463 25.352C63.0503 28.488 60.6823 30.936 57.6423 32.696C54.6023 34.456 51.1143 35.336 47.1783 35.336ZM48.6183 26.6C50.5063 26.6 52.1543 26.104 53.5623 25.112C55.0023 24.12 56.0903 22.808 56.8263 21.176C57.5943 19.512 57.9783 17.72 57.9783 15.8C57.9783 13.752 57.4183 12.168 56.2983 11.048C55.2103 9.896 53.6423 9.32 51.5943 9.32C49.7063 9.32 48.0423 9.816 46.6023 10.808C45.1623 11.768 44.0583 13.064 43.2903 14.696C42.5223 16.328 42.1383 18.12 42.1383 20.072C42.1383 22.088 42.6983 23.688 43.8183 24.872C44.9383 26.024 46.5383 26.6 48.6183 26.6ZM83.8076 1.16L80.3996 20.792C80.3036 21.368 80.2556 21.912 80.2556 22.424C80.2556 23.704 80.5916 24.696 81.2636 25.4C81.9676 26.104 83.0396 26.456 84.4796 26.456C86.2076 26.456 87.5996 25.96 88.6556 24.968C89.7116 23.976 90.3996 22.584 90.7196 20.792L94.1756 1.16H103.584L100.128 20.792C99.5836 23.992 98.4796 26.68 96.8156 28.856C95.1516 31.032 93.1196 32.664 90.7196 33.752C88.3196 34.808 85.6956 35.336 82.8476 35.336C79.1676 35.336 76.2076 34.376 73.9676 32.456C71.7596 30.536 70.6556 27.784 70.6556 24.2C70.6556 23.048 70.7676 21.912 70.9916 20.792L74.4476 1.16H83.8076ZM123.595 1.16C127.147 1.16 129.851 1.96 131.707 3.56C133.563 5.128 134.491 7.224 134.491 9.848C134.491 10.648 134.427 11.368 134.299 12.008C133.915 14.312 132.939 16.344 131.371 18.104C129.803 19.832 127.723 21.064 125.131 21.8L130.411 35H119.947L115.435 22.52H114.427L112.219 35H102.763L108.763 1.16H123.595ZM115.579 16.088H120.235C122.731 16.088 124.203 14.904 124.651 12.536C124.715 12.152 124.747 11.88 124.747 11.72C124.747 10.856 124.459 10.184 123.883 9.704C123.339 9.224 122.523 8.984 121.435 8.984H116.779L115.579 16.088ZM148.514 35.336C144.61 35.336 141.458 34.536 139.058 32.936C136.69 31.304 135.506 28.936 135.506 25.832C135.506 25.576 135.538 25.128 135.602 24.488H145.538C145.442 25.576 145.666 26.424 146.21 27.032C146.754 27.64 147.586 27.944 148.706 27.944C149.634 27.944 150.37 27.736 150.914 27.32C151.49 26.904 151.778 26.312 151.778 25.544C151.778 24.648 151.362 23.912 150.53 23.336C149.73 22.76 148.418 22.088 146.594 21.32C144.77 20.552 143.266 19.832 142.082 19.16C140.898 18.456 139.874 17.512 139.01 16.328C138.146 15.112 137.714 13.608 137.714 11.816C137.714 9.48 138.29 7.48 139.442 5.816C140.594 4.12 142.194 2.84 144.242 1.976C146.322 1.08 148.69 0.631999 151.346 0.631999C153.746 0.631999 155.874 1.016 157.73 1.784C159.586 2.52 161.026 3.592 162.05 5C163.106 6.408 163.634 8.072 163.634 9.992C163.634 10.504 163.618 10.888 163.586 11.144H153.458C153.49 10.984 153.506 10.76 153.506 10.472C153.506 9.704 153.266 9.112 152.786 8.696C152.306 8.248 151.65 8.024 150.818 8.024C149.954 8.024 149.25 8.248 148.706 8.696C148.194 9.112 147.938 9.704 147.938 10.472C147.938 11.304 148.338 12.024 149.138 12.632C149.97 13.208 151.25 13.896 152.978 14.696C154.834 15.56 156.354 16.376 157.538 17.144C158.754 17.88 159.794 18.872 160.658 20.12C161.522 21.368 161.954 22.904 161.954 24.728C161.954 26.744 161.41 28.568 160.322 30.2C159.234 31.8 157.682 33.064 155.666 33.992C153.65 34.888 151.266 35.336 148.514 35.336ZM196.218 35H186.762L177.642 16.088L174.282 35H164.826L170.826 1.16H180.234L189.402 20.312L192.762 1.16H202.17L196.218 35ZM215.641 8.6L214.681 14.216H225.481L224.185 21.368H213.385L212.281 27.512H224.521L223.225 35H201.529L207.529 1.16H229.177L227.881 8.6H215.641ZM250.242 29.48H238.242L235.458 35H225.57L243.858 1.16H254.706L261.042 35H251.106L250.242 29.48ZM249.138 22.328L247.458 11.336L241.89 22.328H249.138ZM285.516 17.624L295.5 35H284.124L276.108 20.12L273.516 35H264.06L270.06 1.16H279.468L276.876 15.8L289.98 1.16H300.828L285.516 17.624ZM313 8.6L312.04 14.216H322.84L321.544 21.368H310.744L309.64 27.512H321.88L320.584 35H298.888L304.888 1.16H326.536L325.24 8.6H313ZM346.017 1.16C349.569 1.16 352.273 1.96 354.129 3.56C355.985 5.128 356.913 7.224 356.913 9.848C356.913 10.648 356.849 11.368 356.721 12.008C356.337 14.312 355.361 16.344 353.793 18.104C352.225 19.832 350.145 21.064 347.553 21.8L352.833 35H342.369L337.857 22.52H336.849L334.641 35H325.185L331.185 1.16H346.017ZM338.001 16.088H342.657C345.153 16.088 346.625 14.904 347.073 12.536C347.137 12.152 347.169 11.88 347.169 11.72C347.169 10.856 346.881 10.184 346.305 9.704C345.761 9.224 344.945 8.984 343.857 8.984H339.201L338.001 16.088ZM370.936 35.336C367.032 35.336 363.88 34.536 361.48 32.936C359.112 31.304 357.928 28.936 357.928 25.832C357.928 25.576 357.96 25.128 358.024 24.488H367.96C367.864 25.576 368.088 26.424 368.632 27.032C369.176 27.64 370.008 27.944 371.128 27.944C372.056 27.944 372.792 27.736 373.336 27.32C373.912 26.904 374.2 26.312 374.2 25.544C374.2 24.648 373.784 23.912 372.952 23.336C372.152 22.76 370.84 22.088 369.016 21.32C367.192 20.552 365.688 19.832 364.504 19.16C363.32 18.456 362.296 17.512 361.432 16.328C360.568 15.112 360.136 13.608 360.136 11.816C360.136 9.48 360.712 7.48 361.864 5.816C363.016 4.12 364.616 2.84 366.664 1.976C368.744 1.08 371.112 0.631999 373.768 0.631999C376.168 0.631999 378.296 1.016 380.152 1.784C382.008 2.52 383.448 3.592 384.472 5C385.528 6.408 386.056 8.072 386.056 9.992C386.056 10.504 386.04 10.888 386.008 11.144H375.88C375.912 10.984 375.928 10.76 375.928 10.472C375.928 9.704 375.688 9.112 375.208 8.696C374.728 8.248 374.072 8.024 373.24 8.024C372.376 8.024 371.672 8.248 371.128 8.696C370.616 9.112 370.36 9.704 370.36 10.472C370.36 11.304 370.76 12.024 371.56 12.632C372.392 13.208 373.672 13.896 375.4 14.696C377.256 15.56 378.776 16.376 379.96 17.144C381.176 17.88 382.216 18.872 383.08 20.12C383.944 21.368 384.376 22.904 384.376 24.728C384.376 26.744 383.832 28.568 382.744 30.2C381.656 31.8 380.104 33.064 378.088 33.992C376.072 34.888 373.688 35.336 370.936 35.336ZM400.472 9.908C402.968 9.908 404.852 10.448 406.124 11.528C407.396 12.608 408.032 14.048 408.032 15.848C408.032 16.136 407.984 16.616 407.888 17.288C407.576 19.016 406.808 20.54 405.584 21.86C404.36 23.18 402.716 24.056 400.652 24.488L405.08 35H401.156L396.98 24.74H393.056L391.22 35H387.944L392.408 9.908H400.472ZM404.504 17.288C404.576 16.856 404.612 16.46 404.612 16.1C404.612 14.948 404.228 14.06 403.46 13.436C402.716 12.812 401.564 12.5 400.004 12.5H395.216L393.524 22.112H398.348C400.124 22.112 401.528 21.68 402.56 20.816C403.592 19.928 404.24 18.752 404.504 17.288ZM417.118 12.464L415.606 21.068H424.714L424.282 23.588H415.174L413.59 32.408H423.814L423.346 35H409.846L414.31 9.872H427.774L427.306 12.464H417.118ZM434.279 9.908L438.275 31.472L449.975 9.908H453.503L439.571 35H435.791L430.751 9.908H434.279ZM460.371 9.908L455.907 35H452.631L457.095 9.908H460.371ZM468.763 12.464L467.251 21.068H476.359L475.927 23.588H466.819L465.235 32.408H475.459L474.991 35H461.491L465.955 9.872H479.419L478.951 12.464H468.763ZM515.912 9.908L504.212 35H500.54L498.272 14.804L488.696 35L485.024 35.036L482.432 9.908H485.96L487.688 31.112L497.444 9.908H501.152L503.168 31.04L512.384 9.908H515.912ZM523.637 35.252C521.309 35.252 519.413 34.7 517.949 33.596C516.509 32.468 515.789 30.968 515.789 29.096C515.789 28.736 515.801 28.472 515.825 28.304H519.065C518.993 29.48 519.353 30.488 520.145 31.328C520.937 32.168 522.149 32.588 523.781 32.588C525.413 32.588 526.709 32.216 527.669 31.472C528.629 30.728 529.109 29.684 529.109 28.34C529.109 27.524 528.869 26.84 528.389 26.288C527.933 25.712 527.357 25.244 526.661 24.884C525.989 24.5 525.065 24.08 523.889 23.624C522.449 23.048 521.285 22.508 520.397 22.004C519.533 21.5 518.801 20.816 518.201 19.952C517.601 19.088 517.325 17.996 517.373 16.676C517.373 15.284 517.745 14.048 518.489 12.968C519.233 11.888 520.253 11.06 521.549 10.484C522.869 9.884 524.369 9.584 526.049 9.584C527.681 9.584 529.085 9.86 530.261 10.412C531.461 10.964 532.361 11.732 532.961 12.716C533.561 13.7 533.825 14.804 533.753 16.028H530.333C530.381 15.404 530.237 14.804 529.901 14.228C529.589 13.652 529.085 13.184 528.389 12.824C527.717 12.464 526.877 12.284 525.869 12.284C524.309 12.284 523.049 12.656 522.089 13.4C521.153 14.12 520.685 15.116 520.685 16.388C520.685 17.132 520.901 17.78 521.333 18.332C521.789 18.86 522.353 19.316 523.025 19.7C523.697 20.06 524.621 20.492 525.797 20.996C527.213 21.596 528.365 22.16 529.253 22.688C530.165 23.192 530.933 23.876 531.557 24.74C532.181 25.604 532.493 26.684 532.493 27.98C532.493 29.372 532.133 30.62 531.413 31.724C530.693 32.804 529.661 33.668 528.317 34.316C526.973 34.94 525.413 35.252 523.637 35.252Z" fill="black"/>
</svg>
